<?xml version="1.0" encoding="UTF-8"?>
<!DOCTYPE svg PUBLIC "-//W3C//DTD SVG 1.1//EN" "http://www.w3.org/Graphics/SVG/1.1/DTD/svg11.dtd">
<svg xmlns="http://www.w3.org/2000/svg" version="1.1" width="236px" height="60px" style="shape-rendering:geometricPrecision; text-rendering:geometricPrecision; image-rendering:optimizeQuality; fill-rule:evenodd; clip-rule:evenodd" xmlns:xlink="http://www.w3.org/1999/xlink">
<g><path style="opacity:0.911" fill="#d15500" d="M 12.5,-0.5 C 17.8333,-0.5 23.1667,-0.5 28.5,-0.5C 38.6474,4.18404 43.1474,12.184 42,23.5C 41.6174,22.944 41.1174,22.6107 40.5,22.5C 40.5,22.1667 40.5,21.8333 40.5,21.5C 40.6716,20.5084 40.3382,19.8417 39.5,19.5C 39.1583,18.6618 38.4916,18.3284 37.5,18.5C 35.8333,17.1667 34.1667,17.1667 32.5,18.5C 31.8333,18.5 31.5,18.8333 31.5,19.5C 30.8333,19.5 30.5,19.8333 30.5,20.5C 29.6618,20.8417 29.3284,21.5084 29.5,22.5C 29.5,22.8333 29.5,23.1667 29.5,23.5C 28.8333,23.5 28.5,23.8333 28.5,24.5C 28.1667,24.5 27.8333,24.5 27.5,24.5C 30.0599,15.2467 26.7266,11.08 17.5,12C 15.6667,12.5 14.5,13.6667 14,15.5C 13.5001,30.1629 13.3334,44.8295 13.5,59.5C 8.83333,59.5 4.16667,59.5 -0.5,59.5C -0.5,44.1667 -0.5,28.8333 -0.5,13.5C 1.74343,6.9222 6.07676,2.25553 12.5,-0.5 Z"/></g>
<g><path style="opacity:0.91" fill="#0c1e4a" d="M 102.5,59.5 C 97.1667,59.5 91.8333,59.5 86.5,59.5C 86.1103,56.1606 85.6103,52.8273 85,49.5C 81.6667,48.1667 78.3333,48.1667 75,49.5C 74.3897,52.8273 73.8897,56.1606 73.5,59.5C 68.5,59.5 63.5,59.5 58.5,59.5C 63.1726,40.4765 68.006,21.4765 73,2.5C 77.4132,1.36761 81.9132,1.20095 86.5,2C 92.5289,20.9461 97.8622,40.1128 102.5,59.5 Z M 79.5,22.5 C 81.1179,27.2558 82.1179,32.2558 82.5,37.5C 80.8333,37.5 79.1667,37.5 77.5,37.5C 78.4258,32.5368 79.0925,27.5368 79.5,22.5 Z"/></g>
<g><path style="opacity:0.874" fill="#0c1e4a" d="M 130.5,59.5 C 125.5,59.5 120.5,59.5 115.5,59.5C 108.658,56.8173 104.491,51.8173 103,44.5C 102.5,30.1705 102.333,15.8372 102.5,1.5C 107.099,1.20001 111.599,1.53335 116,2.5C 116.333,16.8333 116.667,31.1667 117,45.5C 121.384,48.4406 125.384,48.1072 129,44.5C 129.333,30.5 129.667,16.5 130,2.5C 134.333,1.16667 138.667,1.16667 143,2.5C 143.667,16.1667 143.667,29.8333 143,43.5C 141.433,51.0129 137.267,56.3462 130.5,59.5 Z"/></g>
<g><path style="opacity:0.869" fill="#0c1e4a" d="M 171.5,59.5 C 166.5,59.5 161.5,59.5 156.5,59.5C 156.5,44.5 156.5,29.5 156.5,14.5C 152.833,14.5 149.167,14.5 145.5,14.5C 145.203,10.2325 145.536,6.06588 146.5,2C 158.5,1.33333 170.5,1.33333 182.5,2C 183.464,6.06588 183.797,10.2325 183.5,14.5C 179.5,14.5 175.5,14.5 171.5,14.5C 171.5,29.5 171.5,44.5 171.5,59.5 Z"/></g>
<g><path style="opacity:0.88" fill="#0c1e4a" d="M 200.5,59.5 C 195.5,59.5 190.5,59.5 185.5,59.5C 185.5,40.1667 185.5,20.8333 185.5,1.5C 190.43,1.19749 195.263,1.53082 200,2.5C 200.5,21.4971 200.667,40.4971 200.5,59.5 Z"/></g>
<g><path style="opacity:0.886" fill="#0c1e4a" d="M 235.5,33.5 C 235.5,38.5 235.5,43.5 235.5,48.5C 232.833,53.1667 229.167,56.8333 224.5,59.5C 219.5,59.5 214.5,59.5 209.5,59.5C 207.604,58.5195 205.604,57.5195 203.5,56.5C 202.167,51.5 202.167,46.5 203.5,41.5C 208.062,46.309 213.396,47.809 219.5,46C 221.68,43.5823 222.013,40.9156 220.5,38C 215.999,35.5841 211.666,32.9175 207.5,30C 200.319,20.05 201.652,11.3834 211.5,4C 218.994,0.391259 226.161,0.891259 233,5.5C 233.828,10.202 233.662,14.8687 232.5,19.5C 228.923,15.7067 224.589,14.2067 219.5,15C 216.735,17.9663 217.068,20.633 220.5,23C 226.534,25.2287 231.534,28.7287 235.5,33.5 Z"/></g>
<g><path style="opacity:0.841" fill="#e8ab7f" d="M 32.5,18.5 C 34.1667,18.5 35.8333,18.5 37.5,18.5C 37.8417,19.3382 38.5084,19.6716 39.5,19.5C 39.3284,20.4916 39.6618,21.1583 40.5,21.5C 40.5,21.8333 40.5,22.1667 40.5,22.5C 40.3505,23.552 40.5172,24.552 41,25.5C 41.3333,25.1667 41.6667,24.8333 42,24.5C 42.4999,36.1619 42.6665,47.8286 42.5,59.5C 37.5,59.5 32.5,59.5 27.5,59.5C 27.5,47.8333 27.5,36.1667 27.5,24.5C 27.8333,24.5 28.1667,24.5 28.5,24.5C 29.1667,24.5 29.5,24.1667 29.5,23.5C 29.5,23.1667 29.5,22.8333 29.5,22.5C 30.3382,22.1583 30.6716,21.4916 30.5,20.5C 31.1667,20.5 31.5,20.1667 31.5,19.5C 32.1667,19.5 32.5,19.1667 32.5,18.5 Z"/></g>
</svg>
