<svg version="1.1" id="Layer_1" xmlns="http://www.w3.org/2000/svg" xmlns:xlink="http://www.w3.org/1999/xlink" x="0px" y="0px" viewBox="0 0 231.1 130" style="enable-background:new 0 0 231.1 130;" xml:space="preserve">
 <style type="text/css">
  .st0{fill:none;}
	.st1{fill:#000048;}
	.st2{clip-path:url(#SVGID_2_);fill:url(#SVGID_3_);}
	.st3{clip-path:url(#SVGID_5_);fill:url(#SVGID_6_);}
	.st4{clip-path:url(#SVGID_8_);fill:url(#SVGID_9_);}
	.st5{clip-path:url(#SVGID_11_);fill:url(#SVGID_12_);}
 </style>
 <g>
  <g>
   <rect class="st0" width="231.1" height="130">
   </rect>
   <path class="st1" d="M213.6,79c0,1.3-1.1,2.5-2.5,2.5c-1.3,0-2.4-1.1-2.4-2.5s1.1-2.5,2.4-2.5C212.5,76.5,213.6,77.6,213.6,79z
			 M213.3,79c0-1.2-1-2.1-2.1-2.1c-1.2,0-2.1,1-2.1,2.1s0.9,2.1,2.1,2.1C212.3,81.1,213.3,80.2,213.3,79z M211.6,79.2l0.7,1.1h-0.6
			l-0.7-1.1h-0.4v1.1h-0.5v-2.7h1c0.5,0,0.8,0.4,0.8,0.8C212.1,78.8,211.9,79.1,211.6,79.2z M210.7,78.8h0.5c0.2,0,0.4-0.2,0.4-0.4
			s-0.2-0.4-0.4-0.4h-0.5V78.8z M90.8,87.2c-2.1-1.9-4.8-3.1-7.9-3.1c-6.4,0-11.5,5.2-11.5,11.5s5.2,11.5,11.5,11.5
			c3,0,5.8-1.2,7.9-3.1v1.8c0,4.3-3.9,7.9-7.9,7.9c-3.4,0-5.8-1.8-7-4.3h-4c1.4,4.6,5.5,8,11,8c6,0,11.5-5.2,11.5-11.5v0
			c0-7.1,0-14.2,0-21.3h-3.7V87.2z M82.9,103.5c-4.3,0-7.9-3.5-7.9-7.9c0-4.3,3.5-7.9,7.9-7.9c4.3,0,7.9,3.5,7.9,7.9
			C90.8,100,87.2,103.5,82.9,103.5z M118.4,94.2c0,4.2,0,8.3,0,12.5h-3.7c0-4.2,0-8.3,0-12.5c0-3.6-2.9-6.4-6.4-6.4
			s-6.4,2.9-6.4,6.4c0,4.2,0,8.3,0,12.5h-3.7c0-7.4,0-14.7,0-22.1h3.7v1.8c1.8-1.4,4-2.3,6.4-2.3C113.8,84.1,118.4,88.6,118.4,94.2z
			 M58.1,84.1c-6.4,0-11.5,5.2-11.5,11.5s5.2,11.5,11.5,11.5c6.4,0,11.5-5.2,11.5-11.5C69.6,89.3,64.4,84.1,58.1,84.1z M58.1,103.5
			c-4.3,0-7.9-3.5-7.9-7.9c0-4.3,3.5-7.9,7.9-7.9c4.3,0,7.9,3.5,7.9,7.9C65.9,100,62.4,103.5,58.1,103.5z M121.7,84.6h3.7
			c0,7.4,0,14.7,0,22.1h-3.7C121.7,99.3,121.7,92,121.7,84.6z M25.9,95.6c0,4.3,3.5,7.9,7.9,7.9c3.1,0,5.9-1.9,7.1-4.5h3.9
			c-1.4,4.8-5.8,8.2-11,8.2c-6.4,0-11.5-5.2-11.5-11.5c0-6.4,5.2-11.5,11.5-11.5v0c5.2,0,9.6,3.5,11,8.2h-3.9
			c-1.3-2.7-4-4.5-7.1-4.5C29.4,87.8,25.9,91.3,25.9,95.6z M126,79.1c0,1.4-1.1,2.4-2.4,2.4c-1.4,0-2.4-1.1-2.4-2.4
			c0-1.4,1.1-2.4,2.4-2.4C124.9,76.6,126,77.7,126,79.1z M196.6,94.2c0,4.2,0,8.3,0,12.5h-3.7c0-4.2,0-8.3,0-12.5
			c0-3.6-2.9-6.4-6.4-6.4c-3.6,0-6.4,2.9-6.4,6.4c0,4.2,0,8.3,0,12.5h-3.7c0-7.4,0-14.7,0-22.1h3.7v1.8c1.8-1.4,4-2.3,6.4-2.3
			C192,84.1,196.6,88.6,196.6,94.2z M203.4,88.3v11.1c0,2,1.6,3.7,3.7,3.7v0h1.8v3.7H207c-4.1,0-7.4-3.3-7.4-7.4V88.3v-3.7v-6h3.7v6
			h5.5v3.7H203.4z M168.9,87.2c-2.1-1.9-4.8-3.1-7.9-3.1v0c-6.4,0-11.5,5.2-11.5,11.5s5.2,11.5,11.5,11.5c3,0,5.8-1.2,7.9-3.1v2.6
			h3.7c0-7.4,0-14.7,0-22.1h-3.7V87.2z M161.1,103.5c-4.3,0-7.9-3.5-7.9-7.9c0-4.3,3.5-7.9,7.9-7.9s7.9,3.5,7.9,7.9
			C168.9,100,165.4,103.5,161.1,103.5z M147.6,88.3L133.9,103c4.6,0,9.1,0,13.7,0v3.7c-6.1,0-12.3,0-18.4,0V103l13.6-14.7
			c-4.5,0-9.1,0-13.6,0v-3.7c6.1,0,12.3,0,18.4,0L147.6,88.3z">
   </path>
   <g>
    <g>
     <defs>
      <polygon id="SVGID_1_" points="89.8,44.1 105,66 120.8,56.6 111.9,44.1 					">
      </polygon>
     </defs>
     <clipPath id="SVGID_2_">
      <use href="#SVGID_1_" style="overflow:visible;">
      </use>
     </clipPath>
     <linearGradient id="SVGID_3_" gradientUnits="userSpaceOnUse" x1="-527.6328" y1="427.3788" x2="-526.9366" y2="427.3788" gradientTransform="matrix(44.5559 0 0 31.484 23598.9355 -13400.5186)">
      <stop offset="0" style="stop-color:#3D54CE">
      </stop>
      <stop offset="1" style="stop-color:#35CACF">
      </stop>
     </linearGradient>
     <rect x="89.8" y="44.1" class="st2" width="31" height="21.9">
     </rect>
    </g>
    <g>
     <defs>
      <polygon id="SVGID_4_" points="105,66 126.8,66 141.7,44.1 					">
      </polygon>
     </defs>
     <clipPath id="SVGID_5_">
      <use xlink:href="#SVGID_4_" style="overflow:visible;">
      </use>
     </clipPath>
     <linearGradient id="SVGID_6_" gradientUnits="userSpaceOnUse" x1="-527.1094" y1="427.3788" x2="-526.4133" y2="427.3788" gradientTransform="matrix(52.7787 0 0 31.484 27925.1465 -13400.5186)">
      <stop offset="0" style="stop-color:#13457D">
      </stop>
      <stop offset="1" style="stop-color:#279698">
      </stop>
     </linearGradient>
     <rect x="105" y="44.1" class="st3" width="36.7" height="21.9">
     </rect>
    </g>
    <g>
     <defs>
      <polygon id="SVGID_7_" points="89.8,44.1 111.9,44.1 120.8,31.6 105,22.2 					">
      </polygon>
     </defs>
     <clipPath id="SVGID_8_">
      <use xlink:href="#SVGID_7_" style="overflow:visible;">
      </use>
     </clipPath>
     <linearGradient id="SVGID_9_" gradientUnits="userSpaceOnUse" x1="-527.6293" y1="427.6829" x2="-526.9332" y2="427.6829" gradientTransform="matrix(44.592 0 0 31.4819 23617.8438 -13431.1201)">
      <stop offset="0" style="stop-color:#090086">
      </stop>
      <stop offset="1" style="stop-color:#2F96A9">
      </stop>
     </linearGradient>
     <rect x="89.8" y="22.2" class="st4" width="31" height="21.9">
     </rect>
    </g>
    <g>
     <defs>
      <polygon id="SVGID_10_" points="105,22.2 141.7,44.1 126.8,22.2 					">
      </polygon>
     </defs>
     <clipPath id="SVGID_11_">
      <use xlink:href="#SVGID_10_" style="overflow:visible;">
      </use>
     </clipPath>
     <linearGradient id="SVGID_12_" gradientUnits="userSpaceOnUse" x1="-527.1094" y1="427.6829" x2="-526.4133" y2="427.6829" gradientTransform="matrix(52.7787 0 0 31.4819 27925.1465 -13431.1201)">
      <stop offset="0" style="stop-color:#3B62CA">
      </stop>
      <stop offset="1" style="stop-color:#93DFE3">
      </stop>
     </linearGradient>
     <rect x="105" y="22.2" class="st5" width="36.7" height="21.9">
     </rect>
    </g>
   </g>
  </g>
 </g>
</svg>