<svg xmlns="http://www.w3.org/2000/svg" width="1964" height="1658" viewBox="0 0 1964 1658" version="1.1"><path d="M 857.677 385.750 C 857.434 386.163, 851.332 396.738, 844.118 409.250 C 836.903 421.762, 825.080 442.238, 817.844 454.750 C 810.609 467.262, 799.886 485.825, 794.017 496 C 788.148 506.175, 778.394 523.050, 772.343 533.500 C 766.292 543.950, 752.655 567.575, 742.039 586 C 731.423 604.425, 721.477 621.594, 719.937 624.154 L 717.137 628.808 787.702 750.904 L 858.267 873 999.383 872.976 L 1140.500 872.952 1163.142 833.726 C 1175.594 812.152, 1194.871 778.750, 1205.978 759.500 C 1217.084 740.250, 1228.914 719.775, 1232.265 714 C 1272.785 644.177, 1281.063 629.591, 1280.792 628.490 C 1280.631 627.839, 1249 572.795, 1210.500 506.170 L 1140.500 385.034 999.309 385.017 C 921.654 385.008, 857.919 385.337, 857.677 385.750 M 899.618 460.250 C 898.359 462.235, 879.700 494.493, 845.968 553 C 840.102 563.175, 827.805 584.422, 818.642 600.216 L 801.981 628.932 851.127 713.966 L 900.273 799 999.387 798.976 L 1098.500 798.951 1103.136 790.726 C 1107.393 783.172, 1117.240 766.068, 1131.188 742 C 1175.184 666.087, 1196 629.770, 1196 628.926 C 1196 628.361, 1173.905 589.671, 1146.900 542.949 L 1097.800 458 999.423 458 L 901.046 458 899.618 460.250 M 1060.972 670.250 C 1063.657 674.788, 1073.708 692.115, 1083.309 708.756 L 1100.765 739.013 1114.537 715.256 C 1134.425 680.952, 1142.567 666.806, 1143.899 664.250 L 1145.070 662 1100.581 662 L 1056.091 662 1060.972 670.250 M 863.750 1095.750 C 938.138 1095.891, 1059.863 1095.891, 1134.250 1095.750 C 1208.638 1095.608, 1147.775 1095.493, 999 1095.493 C 850.225 1095.493, 789.363 1095.608, 863.750 1095.750 M 188 1369 L 188 1554 968 1554 L 1748 1554 1748 1369 L 1748 1184 968 1184 L 188 1184 188 1369 M 1635 1282 L 1635 1347 1646.500 1347 L 1658 1347 1658 1282 L 1658 1217 1646.500 1217 L 1635 1217 1635 1282 M 1501.415 1221.421 C 1493.683 1224.788, 1491.306 1234.953, 1496.809 1241.113 C 1499.069 1243.642, 1500.602 1244.351, 1504.644 1244.740 C 1513.949 1245.634, 1519.725 1240.121, 1518.730 1231.294 C 1518.168 1226.313, 1515.931 1223.330, 1511.282 1221.362 C 1507.320 1219.685, 1505.377 1219.697, 1501.415 1221.421 M 1077.033 1222.537 C 1054.237 1228.930, 1045.305 1253.012, 1058.210 1273.288 C 1059.886 1275.921, 1061.087 1278.211, 1060.879 1278.376 C 1060.670 1278.541, 1058.421 1280.080, 1055.880 1281.797 C 1048.994 1286.448, 1042.396 1294.327, 1039.969 1300.798 C 1038.251 1305.378, 1037.897 1308.173, 1038.170 1315 C 1038.572 1325.028, 1040.898 1330.663, 1047.267 1337.032 C 1060.797 1350.562, 1087.963 1352.960, 1108.063 1342.397 L 1115.112 1338.693 1119.371 1342.873 L 1123.629 1347.053 1139.271 1346.776 L 1154.913 1346.500 1144.430 1334.819 L 1133.947 1323.138 1138.949 1315.765 C 1144.835 1307.090, 1149.370 1296.617, 1152.054 1285.500 C 1153.117 1281.100, 1153.989 1277.162, 1153.993 1276.750 C 1153.997 1276.338, 1148.425 1276, 1141.611 1276 L 1129.223 1276 1128.562 1279.750 C 1127.136 1287.849, 1120.600 1305, 1118.939 1305 C 1118.203 1305, 1106.466 1292.422, 1100.601 1285.349 L 1097.988 1282.197 1102.744 1279.414 C 1118.218 1270.357, 1125.515 1256.162, 1121.606 1242.718 C 1119.244 1234.593, 1114.652 1229.134, 1106.813 1225.131 C 1101.104 1222.216, 1099.020 1221.710, 1091.357 1221.382 C 1085.387 1221.127, 1080.718 1221.503, 1077.033 1222.537 M 1085.500 1238.719 C 1080.805 1239.863, 1076.987 1245.709, 1077.022 1251.700 C 1077.047 1255.958, 1079.646 1262.114, 1083.163 1266.245 L 1085.500 1268.991 1089.662 1265.745 C 1095.149 1261.468, 1099 1255.469, 1099 1251.201 C 1099 1246.182, 1096.324 1241.382, 1092.522 1239.577 C 1089.076 1237.942, 1088.818 1237.911, 1085.500 1238.719 M 1260.490 1256.959 C 1254.497 1258.237, 1244.735 1261.827, 1243.388 1263.249 C 1241.586 1265.151, 1245.732 1278.331, 1247.920 1277.659 C 1248.789 1277.393, 1252.200 1276.172, 1255.500 1274.947 C 1263.473 1271.986, 1275.878 1271.695, 1281.206 1274.343 C 1285.016 1276.238, 1289 1282.536, 1289 1286.665 C 1289 1288.526, 1288.178 1288.752, 1279.250 1289.334 C 1252.154 1291.101, 1237.551 1301.561, 1236.221 1320.154 C 1235.627 1328.458, 1237.594 1334.438, 1242.823 1340.226 C 1248.776 1346.815, 1253.025 1348.472, 1264 1348.487 C 1272.161 1348.498, 1274.275 1348.134, 1279 1345.906 C 1282.025 1344.479, 1285.930 1341.966, 1287.679 1340.321 L 1290.858 1337.330 1291.523 1342.165 L 1292.188 1347 1302.344 1347.001 L 1312.500 1347.002 1312.242 1319.251 C 1311.886 1281.032, 1310.317 1273.234, 1301.312 1264.934 C 1294.099 1258.285, 1289.347 1256.677, 1276 1256.369 C 1269.675 1256.223, 1262.695 1256.488, 1260.490 1256.959 M 1359.395 1258.135 C 1339.284 1264.886, 1327.202 1287.599, 1330.755 1311.975 C 1333.513 1330.894, 1345.632 1344.064, 1363.799 1347.885 C 1378.305 1350.937, 1407 1347.025, 1407 1341.996 C 1407 1339.516, 1404.816 1329.681, 1404.066 1328.784 C 1403.737 1328.390, 1400.775 1328.780, 1397.484 1329.650 C 1389.830 1331.674, 1374.934 1331.916, 1368.740 1330.117 C 1361.763 1328.091, 1355.399 1322.083, 1353.518 1315.750 C 1352.683 1312.938, 1352 1310.269, 1352 1309.818 C 1352 1309.368, 1365.500 1309, 1382 1309 L 1412 1309 1412 1299.105 C 1412 1282.561, 1406.938 1270.649, 1396.602 1262.868 C 1387.450 1255.978, 1371.765 1253.983, 1359.395 1258.135 M 1464.248 1258.554 C 1458.949 1261.204, 1454.238 1265.961, 1451.679 1271.243 L 1450.288 1274.116 1449.644 1269.418 C 1449.290 1266.835, 1449 1263.209, 1449 1261.360 L 1449 1258 1438.853 1258 L 1428.707 1258 1429.353 1265.651 C 1429.709 1269.859, 1430 1289.884, 1430 1310.151 L 1430 1347 1441.500 1347 L 1453 1347 1453.006 1321.250 C 1453.009 1305.474, 1453.441 1293.952, 1454.121 1291.503 C 1456.533 1282.813, 1467.259 1275.986, 1476.242 1277.423 L 1480.068 1278.035 1479.784 1267.267 L 1479.500 1256.500 1474.500 1256.214 C 1470.701 1255.997, 1468.238 1256.559, 1464.248 1258.554 M 1560.490 1256.959 C 1554.497 1258.237, 1544.735 1261.827, 1543.388 1263.249 C 1541.586 1265.151, 1545.732 1278.331, 1547.920 1277.659 C 1548.789 1277.393, 1552.200 1276.172, 1555.500 1274.947 C 1563.473 1271.986, 1575.878 1271.695, 1581.206 1274.343 C 1585.016 1276.238, 1589 1282.536, 1589 1286.665 C 1589 1288.526, 1588.178 1288.752, 1579.250 1289.334 C 1552.154 1291.101, 1537.551 1301.561, 1536.221 1320.154 C 1535.627 1328.458, 1537.594 1334.438, 1542.823 1340.226 C 1548.885 1346.936, 1552.984 1348.500, 1564.500 1348.499 C 1573.404 1348.499, 1575.054 1348.206, 1579.558 1345.830 C 1582.340 1344.362, 1586.021 1341.849, 1587.737 1340.246 L 1590.858 1337.330 1591.523 1342.165 L 1592.188 1347 1602.344 1347.001 L 1612.500 1347.002 1612.242 1319.251 C 1611.886 1281.032, 1610.317 1273.234, 1601.312 1264.934 C 1594.099 1258.285, 1589.347 1256.677, 1576 1256.369 C 1569.675 1256.223, 1562.695 1256.488, 1560.490 1256.959 M 416 1272.500 L 416 1287 420.500 1287 L 425 1287 425 1272.500 L 425 1258 420.500 1258 L 416 1258 416 1272.500 M 596 1272.500 L 596 1287 600.500 1287 L 605 1287 605 1272.500 L 605 1258 600.500 1258 L 596 1258 596 1272.500 M 1495 1302.500 L 1495 1347 1506.500 1347 L 1518 1347 1518 1302.500 L 1518 1258 1506.500 1258 L 1495 1258 1495 1302.500 M 1364.450 1273.352 C 1359.205 1275.730, 1354.446 1282.524, 1352.614 1290.250 L 1351.962 1293 1371.569 1293 L 1391.176 1293 1390.487 1288.750 C 1389.609 1283.325, 1386.274 1277.249, 1382.739 1274.635 C 1379.253 1272.057, 1368.908 1271.331, 1364.450 1273.352 M 1070.301 1295.192 C 1058.844 1307.038, 1063.859 1324.464, 1079.782 1328.139 C 1085.800 1329.528, 1093.402 1328.258, 1098.829 1324.958 L 1102.122 1322.955 1091.218 1311.228 C 1085.221 1304.777, 1078.781 1297.786, 1076.907 1295.692 L 1073.500 1291.884 1070.301 1295.192 M 1273.487 1305.388 C 1263.135 1307.904, 1259 1312.318, 1259 1320.849 C 1259 1327.111, 1261.741 1330.709, 1267.495 1332.002 C 1275.007 1333.690, 1282.192 1330.708, 1286.750 1324.010 C 1288.640 1321.233, 1289 1319.367, 1289 1312.352 L 1289 1304 1283.750 1304.085 C 1280.862 1304.132, 1276.244 1304.718, 1273.487 1305.388 M 1573.487 1305.388 C 1563.135 1307.904, 1559 1312.318, 1559 1320.849 C 1559 1327.111, 1561.741 1330.709, 1567.495 1332.002 C 1575.007 1333.690, 1582.192 1330.708, 1586.750 1324.010 C 1588.640 1321.233, 1589 1319.367, 1589 1312.352 L 1589 1304 1583.750 1304.085 C 1580.862 1304.132, 1576.244 1304.718, 1573.487 1305.388 M 501 1321.098 C 488.788 1323.483, 476.929 1332.714, 471.582 1343.997 C 468.672 1350.137, 468.500 1351.169, 468.500 1362.500 C 468.500 1373.558, 468.720 1374.971, 471.307 1380.500 C 477.011 1392.695, 482.192 1396.078, 509.732 1405.590 C 521.704 1409.725, 533.368 1414.201, 535.651 1415.538 C 557.216 1428.164, 557.546 1463.770, 536.244 1479.490 C 524.095 1488.455, 503.824 1489.367, 490.500 1481.549 C 479.118 1474.870, 471.052 1461.293, 471.012 1448.750 L 471 1445 466.500 1445 C 462.036 1445, 462 1445.028, 462 1448.451 C 462 1464.169, 473.006 1481.585, 487.818 1489.307 C 496.983 1494.085, 503.645 1495.367, 516.369 1494.801 C 526.100 1494.368, 527.554 1494.030, 534.537 1490.579 C 547.543 1484.151, 557.092 1471.997, 560.079 1458.066 C 561.813 1449.984, 560.785 1433.688, 558.108 1426.798 C 555.732 1420.684, 548.944 1412.365, 543.674 1409.107 C 541.892 1408.006, 530.851 1403.716, 519.139 1399.572 C 494.593 1390.890, 489.279 1388.260, 483.875 1382.121 C 472.849 1369.595, 475.684 1346.247, 489.500 1335.791 C 496.651 1330.380, 502.750 1328.545, 513.500 1328.570 C 521.181 1328.588, 523.379 1328.995, 528.500 1331.350 C 531.800 1332.867, 536.017 1335.546, 537.872 1337.304 C 542.232 1341.437, 546.711 1350.837, 547.561 1357.638 L 548.230 1363 552.676 1363 L 557.123 1363 556.470 1358.250 C 554.835 1346.348, 552.086 1340.144, 545.173 1332.754 C 535.275 1322.173, 518.357 1317.708, 501 1321.098 M 715 1320.581 C 713.625 1320.824, 709.800 1321.506, 706.500 1322.096 C 687.522 1325.488, 666.068 1339.960, 653.987 1357.520 C 643.123 1373.309, 637.932 1395.418, 640.021 1417 C 641.295 1430.159, 643.209 1436.895, 648.969 1448.500 C 659.545 1469.810, 678.262 1485.441, 701.128 1492.059 C 710.529 1494.780, 731.756 1495.798, 742.608 1494.047 C 763.614 1490.658, 781.811 1480.016, 795.020 1463.395 C 806.345 1449.143, 812.489 1432.694, 813.656 1413.500 C 815.240 1387.440, 807.415 1364.917, 790.640 1347.258 C 773.385 1329.093, 755.542 1321.217, 730 1320.493 C 723.125 1320.298, 716.375 1320.337, 715 1320.581 M 906.734 1321.513 C 885.474 1325.549, 866.164 1337.990, 859.142 1352.176 L 857.002 1356.500 857.001 1340.250 L 857 1324 852.500 1324 L 848 1324 848 1407.500 L 848 1491 852.454 1491 L 856.907 1491 857.213 1434.750 L 857.518 1378.500 860.248 1370.422 C 866.969 1350.535, 882.093 1336.425, 902.686 1330.827 C 912.921 1328.044, 933.104 1327.814, 943.472 1330.361 C 966.143 1335.931, 982.068 1351.473, 988.697 1374.500 C 990.220 1379.789, 990.464 1387.043, 990.760 1435.750 L 991.094 1491 995.664 1491 L 1000.234 1491 999.720 1438.250 C 999.240 1388.943, 999.065 1384.848, 997.035 1375.517 C 990.642 1346.123, 975.805 1329.850, 949 1322.834 C 938.835 1320.173, 917.335 1319.501, 906.734 1321.513 M 265.228 1402.250 C 282.799 1445.287, 298.106 1482.882, 299.243 1485.794 L 301.311 1491.087 307.293 1490.794 L 313.275 1490.500 347.131 1407.500 C 365.753 1361.850, 380.991 1324.364, 380.994 1324.198 C 380.997 1324.031, 378.638 1324.031, 375.752 1324.198 L 370.504 1324.500 339.042 1401.750 C 321.737 1444.237, 307.337 1478.998, 307.040 1478.995 C 306.743 1478.992, 292.100 1444.128, 274.500 1401.519 L 242.500 1324.048 237.890 1324.024 L 233.280 1324 265.228 1402.250 M 416 1407.500 L 416 1491 420.500 1491 L 425 1491 425 1407.500 L 425 1324 420.500 1324 L 416 1324 416 1407.500 M 596 1407.500 L 596 1491 600.500 1491 L 605 1491 605 1407.500 L 605 1324 600.500 1324 L 596 1324 596 1407.500 M 718 1328.579 C 716.625 1328.824, 712.800 1329.506, 709.500 1330.096 C 687.290 1334.069, 664.920 1352.104, 655.343 1373.759 C 648.800 1388.554, 647.010 1411.140, 651.046 1427.976 C 657.532 1455.033, 677.993 1476.532, 704.545 1484.187 C 714.909 1487.175, 736.813 1487.458, 747 1484.735 C 769.096 1478.829, 787.739 1462.964, 797.406 1441.840 C 802.806 1430.040, 804.381 1422.285, 804.381 1407.500 C 804.381 1391.933, 802.742 1384.474, 796.473 1371.500 C 783.848 1345.375, 759.866 1329.745, 730.567 1328.547 C 725.030 1328.321, 719.375 1328.335, 718 1328.579 M 1210.994 1423.750 C 1210.991 1454.963, 1210.699 1484.213, 1210.346 1488.750 L 1209.704 1497 1219.852 1497 L 1230 1497 1230.014 1493.250 C 1230.021 1491.188, 1230.303 1488.472, 1230.639 1487.216 C 1231.227 1485.023, 1231.385 1485.090, 1234.651 1488.906 C 1236.521 1491.090, 1240.627 1494.143, 1243.776 1495.689 C 1248.892 1498.201, 1250.563 1498.500, 1259.500 1498.500 C 1268.257 1498.500, 1270.211 1498.167, 1275.218 1495.820 C 1291.019 1488.414, 1299.948 1472.240, 1299.985 1450.960 C 1300.019 1431.532, 1291.916 1416.034, 1278.203 1409.300 C 1273.111 1406.800, 1271.428 1406.500, 1262.500 1406.500 C 1253.800 1406.500, 1251.774 1406.840, 1246.914 1409.120 C 1243.841 1410.561, 1239.678 1413.388, 1237.664 1415.403 L 1234 1419.067 1234 1393.033 L 1234 1367 1222.500 1367 L 1211 1367 1210.994 1423.750 M 1492.415 1371.421 C 1484.683 1374.788, 1482.306 1384.953, 1487.809 1391.113 C 1490.069 1393.642, 1491.602 1394.351, 1495.644 1394.740 C 1504.949 1395.634, 1510.725 1390.121, 1509.730 1381.294 C 1509.168 1376.313, 1506.931 1373.330, 1502.282 1371.362 C 1498.320 1369.685, 1496.377 1369.697, 1492.415 1371.421 M 1437 1384.997 L 1426.500 1387.604 1426.215 1397.802 L 1425.930 1408 1419.465 1408 L 1413 1408 1413 1416.500 L 1413 1425 1419.429 1425 L 1425.859 1425 1426.179 1452.750 C 1426.477 1478.480, 1426.653 1480.828, 1428.603 1485 C 1431.116 1490.377, 1434.756 1494.161, 1439.793 1496.631 C 1444.342 1498.862, 1458.753 1499.682, 1464.801 1498.054 L 1469 1496.923 1469 1488.461 L 1469 1480 1461.674 1480 C 1449.041 1480, 1448.059 1477.572, 1448.024 1446.250 L 1448 1425 1459 1425 L 1470 1425 1470 1416.500 L 1470 1408 1459.029 1408 L 1448.058 1408 1447.779 1395.194 L 1447.500 1382.389 1437 1384.997 M 1080.044 1407.554 C 1074.357 1410.060, 1070.135 1413.834, 1067.126 1419.103 L 1064.283 1424.081 1063.641 1419.401 C 1063.289 1416.827, 1063 1413.209, 1063 1411.360 L 1063 1408 1052.853 1408 L 1042.707 1408 1043.353 1415.651 C 1043.709 1419.859, 1044 1439.884, 1044 1460.151 L 1044 1497 1055.500 1497 L 1067 1497 1067.006 1471.250 C 1067.009 1455.474, 1067.441 1443.952, 1068.121 1441.503 C 1070.533 1432.813, 1081.259 1425.986, 1090.242 1427.423 L 1094.068 1428.035 1093.784 1417.267 L 1093.500 1406.500 1088.500 1406.266 C 1085.689 1406.134, 1081.987 1406.698, 1080.044 1407.554 M 1135.251 1407.491 C 1127.660 1409.613, 1122.388 1412.556, 1116.774 1417.808 C 1107.149 1426.812, 1103 1437.406, 1103 1452.984 C 1103 1464.912, 1105.294 1473.217, 1110.744 1481.018 C 1118.404 1491.982, 1129.471 1497.860, 1144.119 1498.743 C 1158.891 1499.633, 1170.646 1495.489, 1180.067 1486.067 C 1189.626 1476.508, 1193.657 1464.516, 1192.766 1448.282 C 1192.501 1443.452, 1191.491 1437.257, 1190.523 1434.516 C 1186.334 1422.662, 1177.407 1413.244, 1166.252 1408.911 C 1158.859 1406.039, 1143.038 1405.315, 1135.251 1407.491 M 1345.251 1407.491 C 1334.398 1410.525, 1324.507 1417.865, 1319.300 1426.751 C 1312.792 1437.857, 1310.934 1456.099, 1314.977 1469.192 C 1318.738 1481.367, 1328.279 1491.634, 1340 1496.119 C 1346.748 1498.700, 1360.545 1499.692, 1367.867 1498.122 C 1385.450 1494.351, 1398.561 1480.980, 1402.029 1463.282 C 1403.577 1455.383, 1402.826 1441.033, 1400.523 1434.516 C 1396.334 1422.662, 1387.407 1413.244, 1376.252 1408.911 C 1368.859 1406.039, 1353.038 1405.315, 1345.251 1407.491 M 1562.348 1407.360 C 1544.835 1411.811, 1531.989 1424.713, 1527.994 1441.868 C 1526.216 1449.502, 1527.181 1465.021, 1529.868 1472 C 1534.177 1483.191, 1543.345 1492.124, 1554.701 1496.197 C 1562.868 1499.126, 1578.413 1499.780, 1588.135 1497.603 C 1598.846 1495.205, 1598.552 1495.571, 1597.011 1486.562 C 1596.293 1482.368, 1595.359 1478.722, 1594.935 1478.460 C 1594.510 1478.197, 1591.557 1478.662, 1588.372 1479.491 C 1572.315 1483.674, 1558.483 1478.325, 1552.944 1465.794 C 1551.133 1461.694, 1550.603 1458.696, 1550.595 1452.500 C 1550.565 1429.565, 1567.825 1418.861, 1592.531 1426.491 C 1594.366 1427.058, 1594.762 1426.296, 1596.636 1418.604 L 1598.709 1410.089 1594.105 1408.430 C 1587.988 1406.226, 1569.290 1405.596, 1562.348 1407.360 M 1632.300 1407.800 C 1619.079 1412.526, 1612 1421.771, 1612 1434.310 C 1612 1445.348, 1618.825 1452.729, 1635.645 1459.883 C 1646.570 1464.530, 1648.144 1465.506, 1649.837 1468.684 C 1652.943 1474.517, 1649.340 1480.636, 1641.971 1482.039 C 1636.147 1483.149, 1625.969 1481.568, 1619.270 1478.513 L 1614.039 1476.129 1612.550 1481.143 C 1609.448 1491.589, 1609.473 1492.676, 1612.853 1494.424 C 1622.074 1499.192, 1641.177 1500.425, 1652.353 1496.973 C 1668.613 1491.950, 1676.389 1478.202, 1671.784 1462.616 C 1669.859 1456.101, 1662.090 1449.041, 1652.500 1445.090 C 1639.963 1439.925, 1638.079 1438.916, 1635.973 1436.238 C 1632.488 1431.808, 1633.724 1426.806, 1639 1423.994 C 1642.634 1422.057, 1652.678 1422.506, 1658.939 1424.885 C 1661.894 1426.007, 1664.641 1426.722, 1665.045 1426.472 C 1666.147 1425.791, 1669.279 1412.261, 1668.593 1411.150 C 1665.930 1406.841, 1641.333 1404.571, 1632.300 1407.800 M 1486 1452.500 L 1486 1497 1497.500 1497 L 1509 1497 1509 1452.500 L 1509 1408 1497.500 1408 L 1486 1408 1486 1452.500 M 1138.962 1425.250 C 1124.920 1432.331, 1121.888 1462.743, 1133.867 1476.356 C 1138.829 1481.997, 1150.151 1483.754, 1156.864 1479.927 C 1164.907 1475.341, 1169.069 1465.991, 1169.075 1452.500 C 1169.083 1434.183, 1161.189 1423, 1148.252 1423 C 1145.234 1423, 1141.751 1423.843, 1138.962 1425.250 M 1348.962 1425.250 C 1334.920 1432.331, 1331.888 1462.743, 1343.867 1476.356 C 1348.842 1482.011, 1360.174 1483.760, 1366.864 1479.905 C 1374.992 1475.221, 1378.916 1466.470, 1378.967 1452.909 C 1379.004 1443.295, 1377.380 1436.684, 1373.568 1430.923 C 1368.471 1423.221, 1357.844 1420.771, 1348.962 1425.250 M 1246.500 1425.388 C 1242.333 1427.206, 1236.343 1434.123, 1234.972 1438.699 C 1234.281 1441.005, 1233.960 1447.545, 1234.163 1455.179 C 1234.488 1467.383, 1234.608 1467.988, 1237.500 1472.079 C 1247.417 1486.105, 1268.609 1482.697, 1274.452 1466.137 C 1280.013 1450.376, 1275.181 1431.869, 1264.038 1426.250 C 1258.957 1423.688, 1251.261 1423.309, 1246.500 1425.388" stroke="none" fill="#fbfbfb" fill-rule="evenodd"/><path d="M 729.256 163.248 C 728.417 164.307, 721.024 176.981, 705.487 204 C 700.204 213.188, 687.768 234.722, 679.500 249 C 675.200 256.425, 668.447 268.125, 664.493 275 C 660.538 281.875, 645.459 307.975, 630.983 333 C 616.508 358.025, 599.865 386.825, 594 397 C 588.135 407.175, 575.528 429, 565.984 445.500 C 556.440 462, 544.742 482.250, 539.989 490.500 C 535.236 498.750, 527.816 511.575, 523.501 519 C 519.186 526.425, 510.860 540.825, 504.998 551 C 499.136 561.175, 490.959 575.350, 486.826 582.500 C 482.694 589.650, 474.955 603.041, 469.628 612.257 L 459.943 629.015 594.416 861.757 L 728.889 1094.500 999.194 1094.735 L 1269.500 1094.970 1281.954 1073.235 C 1288.804 1061.281, 1299.630 1042.500, 1306.013 1031.500 C 1312.395 1020.500, 1329.702 990.575, 1344.472 965 C 1359.242 939.425, 1377.838 907.250, 1385.796 893.500 C 1393.754 879.750, 1404.481 861.188, 1409.633 852.250 C 1420.498 833.401, 1433.141 811.517, 1449.060 784 C 1455.265 773.275, 1467.867 751.450, 1477.065 735.500 C 1486.262 719.550, 1498.478 698.400, 1504.210 688.500 C 1540.026 626.644, 1538.351 629.759, 1537.272 627.043 C 1536.716 625.644, 1476.165 520.550, 1402.714 393.500 L 1269.167 162.500 999.707 162.248 C 784.884 162.047, 730.047 162.250, 729.256 163.248 M 857.677 385.750 C 857.434 386.163, 851.332 396.738, 844.118 409.250 C 836.903 421.762, 825.080 442.238, 817.844 454.750 C 810.609 467.262, 799.886 485.825, 794.017 496 C 788.148 506.175, 778.394 523.050, 772.343 533.500 C 766.292 543.950, 752.655 567.575, 742.039 586 C 731.423 604.425, 721.477 621.594, 719.937 624.154 L 717.137 628.808 787.702 750.904 L 858.267 873 999.383 872.976 L 1140.500 872.952 1163.142 833.726 C 1175.594 812.152, 1194.871 778.750, 1205.978 759.500 C 1217.084 740.250, 1228.914 719.775, 1232.265 714 C 1272.785 644.177, 1281.063 629.591, 1280.792 628.490 C 1280.631 627.839, 1249 572.795, 1210.500 506.170 L 1140.500 385.034 999.309 385.017 C 921.654 385.008, 857.919 385.337, 857.677 385.750 M 899.618 460.250 C 898.359 462.235, 879.700 494.493, 845.968 553 C 840.102 563.175, 827.805 584.422, 818.642 600.216 L 801.981 628.932 851.127 713.966 L 900.273 799 999.387 798.976 L 1098.500 798.951 1103.136 790.726 C 1107.393 783.172, 1117.240 766.068, 1131.188 742 C 1175.184 666.087, 1196 629.770, 1196 628.926 C 1196 628.361, 1173.905 589.671, 1146.900 542.949 L 1097.800 458 999.423 458 L 901.046 458 899.618 460.250 M 1060.972 670.250 C 1063.657 674.788, 1073.708 692.115, 1083.309 708.756 L 1100.765 739.013 1114.537 715.256 C 1134.425 680.952, 1142.567 666.806, 1143.899 664.250 L 1145.070 662 1100.581 662 L 1056.091 662 1060.972 670.250 M 1635 1282 L 1635 1347 1646.500 1347 L 1658 1347 1658 1282 L 1658 1217 1646.500 1217 L 1635 1217 1635 1282 M 1501.415 1221.421 C 1493.683 1224.788, 1491.306 1234.953, 1496.809 1241.113 C 1499.069 1243.642, 1500.602 1244.351, 1504.644 1244.740 C 1513.949 1245.634, 1519.725 1240.121, 1518.730 1231.294 C 1518.168 1226.313, 1515.931 1223.330, 1511.282 1221.362 C 1507.320 1219.685, 1505.377 1219.697, 1501.415 1221.421 M 1077.033 1222.537 C 1054.237 1228.930, 1045.305 1253.012, 1058.210 1273.288 C 1059.886 1275.921, 1061.087 1278.211, 1060.879 1278.376 C 1060.670 1278.541, 1058.421 1280.080, 1055.880 1281.797 C 1048.994 1286.448, 1042.396 1294.327, 1039.969 1300.798 C 1038.251 1305.378, 1037.897 1308.173, 1038.170 1315 C 1038.572 1325.028, 1040.898 1330.663, 1047.267 1337.032 C 1060.797 1350.562, 1087.963 1352.960, 1108.063 1342.397 L 1115.112 1338.693 1119.371 1342.873 L 1123.629 1347.053 1139.271 1346.776 L 1154.913 1346.500 1144.430 1334.819 L 1133.947 1323.138 1138.949 1315.765 C 1144.835 1307.090, 1149.370 1296.617, 1152.054 1285.500 C 1153.117 1281.100, 1153.989 1277.162, 1153.993 1276.750 C 1153.997 1276.338, 1148.425 1276, 1141.611 1276 L 1129.223 1276 1128.562 1279.750 C 1127.136 1287.849, 1120.600 1305, 1118.939 1305 C 1118.203 1305, 1106.466 1292.422, 1100.601 1285.349 L 1097.988 1282.197 1102.744 1279.414 C 1118.218 1270.357, 1125.515 1256.162, 1121.606 1242.718 C 1119.244 1234.593, 1114.652 1229.134, 1106.813 1225.131 C 1101.104 1222.216, 1099.020 1221.710, 1091.357 1221.382 C 1085.387 1221.127, 1080.718 1221.503, 1077.033 1222.537 M 1085.500 1238.719 C 1080.805 1239.863, 1076.987 1245.709, 1077.022 1251.700 C 1077.047 1255.958, 1079.646 1262.114, 1083.163 1266.245 L 1085.500 1268.991 1089.662 1265.745 C 1095.149 1261.468, 1099 1255.469, 1099 1251.201 C 1099 1246.182, 1096.324 1241.382, 1092.522 1239.577 C 1089.076 1237.942, 1088.818 1237.911, 1085.500 1238.719 M 1260.490 1256.959 C 1254.497 1258.237, 1244.735 1261.827, 1243.388 1263.249 C 1241.586 1265.151, 1245.732 1278.331, 1247.920 1277.659 C 1248.789 1277.393, 1252.200 1276.172, 1255.500 1274.947 C 1263.473 1271.986, 1275.878 1271.695, 1281.206 1274.343 C 1285.016 1276.238, 1289 1282.536, 1289 1286.665 C 1289 1288.526, 1288.178 1288.752, 1279.250 1289.334 C 1252.154 1291.101, 1237.551 1301.561, 1236.221 1320.154 C 1235.627 1328.458, 1237.594 1334.438, 1242.823 1340.226 C 1248.776 1346.815, 1253.025 1348.472, 1264 1348.487 C 1272.161 1348.498, 1274.275 1348.134, 1279 1345.906 C 1282.025 1344.479, 1285.930 1341.966, 1287.679 1340.321 L 1290.858 1337.330 1291.523 1342.165 L 1292.188 1347 1302.344 1347.001 L 1312.500 1347.002 1312.242 1319.251 C 1311.886 1281.032, 1310.317 1273.234, 1301.312 1264.934 C 1294.099 1258.285, 1289.347 1256.677, 1276 1256.369 C 1269.675 1256.223, 1262.695 1256.488, 1260.490 1256.959 M 1359.395 1258.135 C 1339.284 1264.886, 1327.202 1287.599, 1330.755 1311.975 C 1333.513 1330.894, 1345.632 1344.064, 1363.799 1347.885 C 1378.305 1350.937, 1407 1347.025, 1407 1341.996 C 1407 1339.516, 1404.816 1329.681, 1404.066 1328.784 C 1403.737 1328.390, 1400.775 1328.780, 1397.484 1329.650 C 1389.830 1331.674, 1374.934 1331.916, 1368.740 1330.117 C 1361.763 1328.091, 1355.399 1322.083, 1353.518 1315.750 C 1352.683 1312.938, 1352 1310.269, 1352 1309.818 C 1352 1309.368, 1365.500 1309, 1382 1309 L 1412 1309 1412 1299.105 C 1412 1282.561, 1406.938 1270.649, 1396.602 1262.868 C 1387.450 1255.978, 1371.765 1253.983, 1359.395 1258.135 M 1464.248 1258.554 C 1458.949 1261.204, 1454.238 1265.961, 1451.679 1271.243 L 1450.288 1274.116 1449.644 1269.418 C 1449.290 1266.835, 1449 1263.209, 1449 1261.360 L 1449 1258 1438.853 1258 L 1428.707 1258 1429.353 1265.651 C 1429.709 1269.859, 1430 1289.884, 1430 1310.151 L 1430 1347 1441.500 1347 L 1453 1347 1453.006 1321.250 C 1453.009 1305.474, 1453.441 1293.952, 1454.121 1291.503 C 1456.533 1282.813, 1467.259 1275.986, 1476.242 1277.423 L 1480.068 1278.035 1479.784 1267.267 L 1479.500 1256.500 1474.500 1256.214 C 1470.701 1255.997, 1468.238 1256.559, 1464.248 1258.554 M 1560.490 1256.959 C 1554.497 1258.237, 1544.735 1261.827, 1543.388 1263.249 C 1541.586 1265.151, 1545.732 1278.331, 1547.920 1277.659 C 1548.789 1277.393, 1552.200 1276.172, 1555.500 1274.947 C 1563.473 1271.986, 1575.878 1271.695, 1581.206 1274.343 C 1585.016 1276.238, 1589 1282.536, 1589 1286.665 C 1589 1288.526, 1588.178 1288.752, 1579.250 1289.334 C 1552.154 1291.101, 1537.551 1301.561, 1536.221 1320.154 C 1535.627 1328.458, 1537.594 1334.438, 1542.823 1340.226 C 1548.885 1346.936, 1552.984 1348.500, 1564.500 1348.499 C 1573.404 1348.499, 1575.054 1348.206, 1579.558 1345.830 C 1582.340 1344.362, 1586.021 1341.849, 1587.737 1340.246 L 1590.858 1337.330 1591.523 1342.165 L 1592.188 1347 1602.344 1347.001 L 1612.500 1347.002 1612.242 1319.251 C 1611.886 1281.032, 1610.317 1273.234, 1601.312 1264.934 C 1594.099 1258.285, 1589.347 1256.677, 1576 1256.369 C 1569.675 1256.223, 1562.695 1256.488, 1560.490 1256.959 M 416 1272.500 L 416 1287 420.500 1287 L 425 1287 425 1272.500 L 425 1258 420.500 1258 L 416 1258 416 1272.500 M 596 1272.500 L 596 1287 600.500 1287 L 605 1287 605 1272.500 L 605 1258 600.500 1258 L 596 1258 596 1272.500 M 1495 1302.500 L 1495 1347 1506.500 1347 L 1518 1347 1518 1302.500 L 1518 1258 1506.500 1258 L 1495 1258 1495 1302.500 M 1364.450 1273.352 C 1359.205 1275.730, 1354.446 1282.524, 1352.614 1290.250 L 1351.962 1293 1371.569 1293 L 1391.176 1293 1390.487 1288.750 C 1389.609 1283.325, 1386.274 1277.249, 1382.739 1274.635 C 1379.253 1272.057, 1368.908 1271.331, 1364.450 1273.352 M 1070.301 1295.192 C 1058.844 1307.038, 1063.859 1324.464, 1079.782 1328.139 C 1085.800 1329.528, 1093.402 1328.258, 1098.829 1324.958 L 1102.122 1322.955 1091.218 1311.228 C 1085.221 1304.777, 1078.781 1297.786, 1076.907 1295.692 L 1073.500 1291.884 1070.301 1295.192 M 1273.487 1305.388 C 1263.135 1307.904, 1259 1312.318, 1259 1320.849 C 1259 1327.111, 1261.741 1330.709, 1267.495 1332.002 C 1275.007 1333.690, 1282.192 1330.708, 1286.750 1324.010 C 1288.640 1321.233, 1289 1319.367, 1289 1312.352 L 1289 1304 1283.750 1304.085 C 1280.862 1304.132, 1276.244 1304.718, 1273.487 1305.388 M 1573.487 1305.388 C 1563.135 1307.904, 1559 1312.318, 1559 1320.849 C 1559 1327.111, 1561.741 1330.709, 1567.495 1332.002 C 1575.007 1333.690, 1582.192 1330.708, 1586.750 1324.010 C 1588.640 1321.233, 1589 1319.367, 1589 1312.352 L 1589 1304 1583.750 1304.085 C 1580.862 1304.132, 1576.244 1304.718, 1573.487 1305.388 M 501 1321.098 C 488.788 1323.483, 476.929 1332.714, 471.582 1343.997 C 468.672 1350.137, 468.500 1351.169, 468.500 1362.500 C 468.500 1373.558, 468.720 1374.971, 471.307 1380.500 C 477.011 1392.695, 482.192 1396.078, 509.732 1405.590 C 521.704 1409.725, 533.368 1414.201, 535.651 1415.538 C 557.216 1428.164, 557.546 1463.770, 536.244 1479.490 C 524.095 1488.455, 503.824 1489.367, 490.500 1481.549 C 479.118 1474.870, 471.052 1461.293, 471.012 1448.750 L 471 1445 466.500 1445 C 462.036 1445, 462 1445.028, 462 1448.451 C 462 1464.169, 473.006 1481.585, 487.818 1489.307 C 496.983 1494.085, 503.645 1495.367, 516.369 1494.801 C 526.100 1494.368, 527.554 1494.030, 534.537 1490.579 C 547.543 1484.151, 557.092 1471.997, 560.079 1458.066 C 561.813 1449.984, 560.785 1433.688, 558.108 1426.798 C 555.732 1420.684, 548.944 1412.365, 543.674 1409.107 C 541.892 1408.006, 530.851 1403.716, 519.139 1399.572 C 494.593 1390.890, 489.279 1388.260, 483.875 1382.121 C 472.849 1369.595, 475.684 1346.247, 489.500 1335.791 C 496.651 1330.380, 502.750 1328.545, 513.500 1328.570 C 521.181 1328.588, 523.379 1328.995, 528.500 1331.350 C 531.800 1332.867, 536.017 1335.546, 537.872 1337.304 C 542.232 1341.437, 546.711 1350.837, 547.561 1357.638 L 548.230 1363 552.676 1363 L 557.123 1363 556.470 1358.250 C 554.835 1346.348, 552.086 1340.144, 545.173 1332.754 C 535.275 1322.173, 518.357 1317.708, 501 1321.098 M 715 1320.581 C 713.625 1320.824, 709.800 1321.506, 706.500 1322.096 C 687.522 1325.488, 666.068 1339.960, 653.987 1357.520 C 643.123 1373.309, 637.932 1395.418, 640.021 1417 C 641.295 1430.159, 643.209 1436.895, 648.969 1448.500 C 659.545 1469.810, 678.262 1485.441, 701.128 1492.059 C 710.529 1494.780, 731.756 1495.798, 742.608 1494.047 C 763.614 1490.658, 781.811 1480.016, 795.020 1463.395 C 806.345 1449.143, 812.489 1432.694, 813.656 1413.500 C 815.240 1387.440, 807.415 1364.917, 790.640 1347.258 C 773.385 1329.093, 755.542 1321.217, 730 1320.493 C 723.125 1320.298, 716.375 1320.337, 715 1320.581 M 906.734 1321.513 C 885.474 1325.549, 866.164 1337.990, 859.142 1352.176 L 857.002 1356.500 857.001 1340.250 L 857 1324 852.500 1324 L 848 1324 848 1407.500 L 848 1491 852.454 1491 L 856.907 1491 857.213 1434.750 L 857.518 1378.500 860.248 1370.422 C 866.969 1350.535, 882.093 1336.425, 902.686 1330.827 C 912.921 1328.044, 933.104 1327.814, 943.472 1330.361 C 966.143 1335.931, 982.068 1351.473, 988.697 1374.500 C 990.220 1379.789, 990.464 1387.043, 990.760 1435.750 L 991.094 1491 995.664 1491 L 1000.234 1491 999.720 1438.250 C 999.240 1388.943, 999.065 1384.848, 997.035 1375.517 C 990.642 1346.123, 975.805 1329.850, 949 1322.834 C 938.835 1320.173, 917.335 1319.501, 906.734 1321.513 M 265.228 1402.250 C 282.799 1445.287, 298.106 1482.882, 299.243 1485.794 L 301.311 1491.087 307.293 1490.794 L 313.275 1490.500 347.131 1407.500 C 365.753 1361.850, 380.991 1324.364, 380.994 1324.198 C 380.997 1324.031, 378.638 1324.031, 375.752 1324.198 L 370.504 1324.500 339.042 1401.750 C 321.737 1444.237, 307.337 1478.998, 307.040 1478.995 C 306.743 1478.992, 292.100 1444.128, 274.500 1401.519 L 242.500 1324.048 237.890 1324.024 L 233.280 1324 265.228 1402.250 M 416 1407.500 L 416 1491 420.500 1491 L 425 1491 425 1407.500 L 425 1324 420.500 1324 L 416 1324 416 1407.500 M 596 1407.500 L 596 1491 600.500 1491 L 605 1491 605 1407.500 L 605 1324 600.500 1324 L 596 1324 596 1407.500 M 718 1328.579 C 716.625 1328.824, 712.800 1329.506, 709.500 1330.096 C 687.290 1334.069, 664.920 1352.104, 655.343 1373.759 C 648.800 1388.554, 647.010 1411.140, 651.046 1427.976 C 657.532 1455.033, 677.993 1476.532, 704.545 1484.187 C 714.909 1487.175, 736.813 1487.458, 747 1484.735 C 769.096 1478.829, 787.739 1462.964, 797.406 1441.840 C 802.806 1430.040, 804.381 1422.285, 804.381 1407.500 C 804.381 1391.933, 802.742 1384.474, 796.473 1371.500 C 783.848 1345.375, 759.866 1329.745, 730.567 1328.547 C 725.030 1328.321, 719.375 1328.335, 718 1328.579 M 1210.994 1423.750 C 1210.991 1454.963, 1210.699 1484.213, 1210.346 1488.750 L 1209.704 1497 1219.852 1497 L 1230 1497 1230.014 1493.250 C 1230.021 1491.188, 1230.303 1488.472, 1230.639 1487.216 C 1231.227 1485.023, 1231.385 1485.090, 1234.651 1488.906 C 1236.521 1491.090, 1240.627 1494.143, 1243.776 1495.689 C 1248.892 1498.201, 1250.563 1498.500, 1259.500 1498.500 C 1268.257 1498.500, 1270.211 1498.167, 1275.218 1495.820 C 1291.019 1488.414, 1299.948 1472.240, 1299.985 1450.960 C 1300.019 1431.532, 1291.916 1416.034, 1278.203 1409.300 C 1273.111 1406.800, 1271.428 1406.500, 1262.500 1406.500 C 1253.800 1406.500, 1251.774 1406.840, 1246.914 1409.120 C 1243.841 1410.561, 1239.678 1413.388, 1237.664 1415.403 L 1234 1419.067 1234 1393.033 L 1234 1367 1222.500 1367 L 1211 1367 1210.994 1423.750 M 1492.415 1371.421 C 1484.683 1374.788, 1482.306 1384.953, 1487.809 1391.113 C 1490.069 1393.642, 1491.602 1394.351, 1495.644 1394.740 C 1504.949 1395.634, 1510.725 1390.121, 1509.730 1381.294 C 1509.168 1376.313, 1506.931 1373.330, 1502.282 1371.362 C 1498.320 1369.685, 1496.377 1369.697, 1492.415 1371.421 M 1437 1384.997 L 1426.500 1387.604 1426.215 1397.802 L 1425.930 1408 1419.465 1408 L 1413 1408 1413 1416.500 L 1413 1425 1419.429 1425 L 1425.859 1425 1426.179 1452.750 C 1426.477 1478.480, 1426.653 1480.828, 1428.603 1485 C 1431.116 1490.377, 1434.756 1494.161, 1439.793 1496.631 C 1444.342 1498.862, 1458.753 1499.682, 1464.801 1498.054 L 1469 1496.923 1469 1488.461 L 1469 1480 1461.674 1480 C 1449.041 1480, 1448.059 1477.572, 1448.024 1446.250 L 1448 1425 1459 1425 L 1470 1425 1470 1416.500 L 1470 1408 1459.029 1408 L 1448.058 1408 1447.779 1395.194 L 1447.500 1382.389 1437 1384.997 M 1080.044 1407.554 C 1074.357 1410.060, 1070.135 1413.834, 1067.126 1419.103 L 1064.283 1424.081 1063.641 1419.401 C 1063.289 1416.827, 1063 1413.209, 1063 1411.360 L 1063 1408 1052.853 1408 L 1042.707 1408 1043.353 1415.651 C 1043.709 1419.859, 1044 1439.884, 1044 1460.151 L 1044 1497 1055.500 1497 L 1067 1497 1067.006 1471.250 C 1067.009 1455.474, 1067.441 1443.952, 1068.121 1441.503 C 1070.533 1432.813, 1081.259 1425.986, 1090.242 1427.423 L 1094.068 1428.035 1093.784 1417.267 L 1093.500 1406.500 1088.500 1406.266 C 1085.689 1406.134, 1081.987 1406.698, 1080.044 1407.554 M 1135.251 1407.491 C 1127.660 1409.613, 1122.388 1412.556, 1116.774 1417.808 C 1107.149 1426.812, 1103 1437.406, 1103 1452.984 C 1103 1464.912, 1105.294 1473.217, 1110.744 1481.018 C 1118.404 1491.982, 1129.471 1497.860, 1144.119 1498.743 C 1158.891 1499.633, 1170.646 1495.489, 1180.067 1486.067 C 1189.626 1476.508, 1193.657 1464.516, 1192.766 1448.282 C 1192.501 1443.452, 1191.491 1437.257, 1190.523 1434.516 C 1186.334 1422.662, 1177.407 1413.244, 1166.252 1408.911 C 1158.859 1406.039, 1143.038 1405.315, 1135.251 1407.491 M 1345.251 1407.491 C 1334.398 1410.525, 1324.507 1417.865, 1319.300 1426.751 C 1312.792 1437.857, 1310.934 1456.099, 1314.977 1469.192 C 1318.738 1481.367, 1328.279 1491.634, 1340 1496.119 C 1346.748 1498.700, 1360.545 1499.692, 1367.867 1498.122 C 1385.450 1494.351, 1398.561 1480.980, 1402.029 1463.282 C 1403.577 1455.383, 1402.826 1441.033, 1400.523 1434.516 C 1396.334 1422.662, 1387.407 1413.244, 1376.252 1408.911 C 1368.859 1406.039, 1353.038 1405.315, 1345.251 1407.491 M 1562.348 1407.360 C 1544.835 1411.811, 1531.989 1424.713, 1527.994 1441.868 C 1526.216 1449.502, 1527.181 1465.021, 1529.868 1472 C 1534.177 1483.191, 1543.345 1492.124, 1554.701 1496.197 C 1562.868 1499.126, 1578.413 1499.780, 1588.135 1497.603 C 1598.846 1495.205, 1598.552 1495.571, 1597.011 1486.562 C 1596.293 1482.368, 1595.359 1478.722, 1594.935 1478.460 C 1594.510 1478.197, 1591.557 1478.662, 1588.372 1479.491 C 1572.315 1483.674, 1558.483 1478.325, 1552.944 1465.794 C 1551.133 1461.694, 1550.603 1458.696, 1550.595 1452.500 C 1550.565 1429.565, 1567.825 1418.861, 1592.531 1426.491 C 1594.366 1427.058, 1594.762 1426.296, 1596.636 1418.604 L 1598.709 1410.089 1594.105 1408.430 C 1587.988 1406.226, 1569.290 1405.596, 1562.348 1407.360 M 1632.300 1407.800 C 1619.079 1412.526, 1612 1421.771, 1612 1434.310 C 1612 1445.348, 1618.825 1452.729, 1635.645 1459.883 C 1646.570 1464.530, 1648.144 1465.506, 1649.837 1468.684 C 1652.943 1474.517, 1649.340 1480.636, 1641.971 1482.039 C 1636.147 1483.149, 1625.969 1481.568, 1619.270 1478.513 L 1614.039 1476.129 1612.550 1481.143 C 1609.448 1491.589, 1609.473 1492.676, 1612.853 1494.424 C 1622.074 1499.192, 1641.177 1500.425, 1652.353 1496.973 C 1668.613 1491.950, 1676.389 1478.202, 1671.784 1462.616 C 1669.859 1456.101, 1662.090 1449.041, 1652.500 1445.090 C 1639.963 1439.925, 1638.079 1438.916, 1635.973 1436.238 C 1632.488 1431.808, 1633.724 1426.806, 1639 1423.994 C 1642.634 1422.057, 1652.678 1422.506, 1658.939 1424.885 C 1661.894 1426.007, 1664.641 1426.722, 1665.045 1426.472 C 1666.147 1425.791, 1669.279 1412.261, 1668.593 1411.150 C 1665.930 1406.841, 1641.333 1404.571, 1632.300 1407.800 M 1486 1452.500 L 1486 1497 1497.500 1497 L 1509 1497 1509 1452.500 L 1509 1408 1497.500 1408 L 1486 1408 1486 1452.500 M 1138.962 1425.250 C 1124.920 1432.331, 1121.888 1462.743, 1133.867 1476.356 C 1138.829 1481.997, 1150.151 1483.754, 1156.864 1479.927 C 1164.907 1475.341, 1169.069 1465.991, 1169.075 1452.500 C 1169.083 1434.183, 1161.189 1423, 1148.252 1423 C 1145.234 1423, 1141.751 1423.843, 1138.962 1425.250 M 1348.962 1425.250 C 1334.920 1432.331, 1331.888 1462.743, 1343.867 1476.356 C 1348.842 1482.011, 1360.174 1483.760, 1366.864 1479.905 C 1374.992 1475.221, 1378.916 1466.470, 1378.967 1452.909 C 1379.004 1443.295, 1377.380 1436.684, 1373.568 1430.923 C 1368.471 1423.221, 1357.844 1420.771, 1348.962 1425.250 M 1246.500 1425.388 C 1242.333 1427.206, 1236.343 1434.123, 1234.972 1438.699 C 1234.281 1441.005, 1233.960 1447.545, 1234.163 1455.179 C 1234.488 1467.383, 1234.608 1467.988, 1237.500 1472.079 C 1247.417 1486.105, 1268.609 1482.697, 1274.452 1466.137 C 1280.013 1450.376, 1275.181 1431.869, 1264.038 1426.250 C 1258.957 1423.688, 1251.261 1423.309, 1246.500 1425.388" stroke="none" fill="#0484ce" fill-rule="evenodd"/></svg>