<?xml version="1.0" standalone="no"?>
<!DOCTYPE svg PUBLIC "-//W3C//DTD SVG 20010904//EN"
 "http://www.w3.org/TR/2001/REC-SVG-20010904/DTD/svg10.dtd">
<svg version="1.0" xmlns="http://www.w3.org/2000/svg"
 width="176.000000pt" height="135.000000pt" viewBox="0 0 176.000000 135.000000"
 preserveAspectRatio="xMidYMid meet">

<g transform="translate(0.000000,135.000000) scale(0.100000,-0.100000)"
fill="#000000" stroke="none">
<path d="M64 846 c-54 -24 -69 -110 -26 -150 10 -8 40 -25 67 -37 66 -28 85
-46 85 -79 0 -53 -59 -73 -121 -41 -68 36 -86 0 -18 -38 83 -47 189 -1 189 82
-1 44 -25 72 -91 101 -31 13 -63 32 -72 41 -25 25 -21 62 9 82 22 14 32 15 71
5 44 -12 63 -10 63 9 0 14 -64 39 -97 39 -15 -1 -42 -7 -59 -14z"/>
<path d="M401 851 c-12 -8 -12 -12 -2 -25 11 -13 34 -16 106 -16 52 0 100 3
109 6 21 8 21 30 0 38 -25 9 -197 7 -213 -3z"/>
<path d="M813 854 c-23 -5 -23 -7 -23 -183 l0 -178 39 -7 c79 -12 182 15 223
61 75 83 56 229 -38 280 -41 23 -153 37 -201 27z m178 -67 c43 -29 59 -60 59
-117 0 -87 -60 -140 -159 -140 l-51 0 0 140 0 140 59 0 c44 0 66 -6 92 -23z"/>
<path d="M1262 850 c-22 -9 -22 -11 -20 -182 l3 -172 35 -9 c48 -12 154 6 196
35 47 33 74 85 74 147 0 67 -19 112 -62 145 -51 38 -171 58 -226 36z m198 -75
c76 -73 54 -198 -43 -234 -16 -6 -51 -11 -78 -11 l-49 0 0 141 0 141 70 -4
c60 -3 73 -7 100 -33z"/>
<path d="M1711 841 c-17 -32 -14 -323 3 -347 30 -40 37 -4 34 181 -2 126 -6
180 -15 182 -6 2 -16 -5 -22 -16z"/>
<path d="M395 679 c-15 -23 15 -30 121 -27 89 2 109 6 109 18 0 12 -20 16
-112 18 -74 2 -114 -1 -118 -9z"/>
<path d="M399 514 c-21 -25 6 -34 108 -34 98 0 123 5 123 25 0 20 -24 25 -125
25 -72 0 -95 -3 -106 -16z"/>
</g>
</svg>
