<?xml version="1.0" encoding="UTF-8"?>
<!DOCTYPE svg PUBLIC "-//W3C//DTD SVG 1.1//EN" "http://www.w3.org/Graphics/SVG/1.1/DTD/svg11.dtd">
<svg xmlns="http://www.w3.org/2000/svg" version="1.1" width="510px" height="499px" style="shape-rendering:geometricPrecision; text-rendering:geometricPrecision; image-rendering:optimizeQuality; fill-rule:evenodd; clip-rule:evenodd" xmlns:xlink="http://www.w3.org/1999/xlink">
<g><path style="opacity:1" fill="#fefefe" d="M -0.5,-0.5 C 169.5,-0.5 339.5,-0.5 509.5,-0.5C 509.5,165.833 509.5,332.167 509.5,498.5C 339.5,498.5 169.5,498.5 -0.5,498.5C -0.5,332.167 -0.5,165.833 -0.5,-0.5 Z"/></g>
<g><path style="opacity:1" fill="#eaedea" d="M 474.5,28.5 C 328.833,28.5 183.167,28.5 37.5,28.5C 37.8328,142.668 37.4995,256.668 36.5,370.5C 36.5,256.167 36.5,141.833 36.5,27.5C 182.668,27.167 328.668,27.5004 474.5,28.5 Z"/></g>
<g><path style="opacity:1" fill="#e0e3df" d="M 474.5,28.5 C 474.5,145.167 474.5,261.833 474.5,378.5C 472.405,376.565 470.738,374.232 469.5,371.5C 467.955,370.548 466.288,370.215 464.5,370.5C 464.66,368.801 464.494,367.134 464,365.5C 456.061,360.167 449.395,353.5 444,345.5C 443.586,345.957 443.086,346.291 442.5,346.5C 440.711,343.758 439.044,340.925 437.5,338C 433.559,335.728 429.893,333.062 426.5,330C 425.207,329.51 423.873,329.343 422.5,329.5C 422.405,326.728 421.071,324.728 418.5,323.5C 417.614,322.675 417.281,321.675 417.5,320.5C 411.782,317.936 406.782,314.436 402.5,310C 401.773,308.601 401.273,307.101 401,305.5C 399.542,306.747 398.042,306.747 396.5,305.5C 395.813,303.726 394.98,302.059 394,300.5C 393.333,301.167 392.667,301.833 392,302.5C 389.574,298.964 387.241,295.298 385,291.5C 383.266,290.751 381.433,290.251 379.5,290C 378.833,288.667 378.167,287.333 377.5,286C 374.506,283.836 371.173,282.17 367.5,281C 365.478,274.654 361.145,271.154 354.5,270.5C 354.785,268.712 354.452,267.045 353.5,265.5C 350.5,263.833 348.167,261.5 346.5,258.5C 344.786,259.609 344.119,258.942 344.5,256.5C 341.05,257.244 339.384,255.91 339.5,252.5C 338.325,252.719 337.325,252.386 336.5,251.5C 335.57,248.638 333.903,246.305 331.5,244.5C 330.914,244.709 330.414,245.043 330,245.5C 324.395,240.962 319.229,235.962 314.5,230.5C 313.271,229.719 311.938,229.219 310.5,229C 304.446,222.946 298.446,216.946 292.5,211C 290.473,209.121 288.14,207.954 285.5,207.5C 285.822,205.278 285.155,203.444 283.5,202C 281.598,201.801 280.098,200.967 279,199.5C 278.667,199.833 278.333,200.167 278,200.5C 276.748,198.999 275.748,197.332 275,195.5C 269.848,192.679 265.681,188.846 262.5,184C 257.255,182.241 253.589,178.908 251.5,174C 248.29,172.799 245.623,170.799 243.5,168C 240.099,168.266 238.433,166.766 238.5,163.5C 237.448,163.649 236.448,163.483 235.5,163C 233.833,160.667 232.167,158.333 230.5,156C 229.833,155.333 229.167,155.333 228.5,156C 229.451,156.718 229.617,157.551 229,158.5C 227.471,157.271 226.304,155.771 225.5,154C 222.296,153.737 220.296,152.07 219.5,149C 218.207,148.51 216.873,148.343 215.5,148.5C 215.5,147.5 215.5,146.5 215.5,145.5C 214.5,145.5 213.5,145.5 212.5,145.5C 212.579,144.07 212.246,142.736 211.5,141.5C 208.831,139.66 206.331,137.66 204,135.5C 203.51,134.207 203.343,132.873 203.5,131.5C 201.194,131.007 198.861,130.674 196.5,130.5C 196.646,128.058 195.813,127.391 194,128.5C 192.809,123.678 189.809,120.345 185,118.5C 184.667,117.167 184.333,115.833 184,114.5C 183.586,114.957 183.086,115.291 182.5,115.5C 175.307,106.702 166.307,100.035 155.5,95.5C 153.119,97.0982 151.952,99.4315 152,102.5C 151.047,104.455 149.713,106.122 148,107.5C 147.316,108.784 147.483,109.951 148.5,111C 146.473,112.396 146.14,114.062 147.5,116C 145.303,118.928 143.469,122.095 142,125.5C 141.654,127.218 141.154,128.885 140.5,130.5C 140.709,131.086 141.043,131.586 141.5,132C 139.939,132.318 138.772,133.151 138,134.5C 137.5,137 137,139.5 136.5,142C 133.911,148.759 130.744,155.259 127,161.5C 124.561,171.477 120.561,180.811 115,189.5C 114.944,194.849 113.278,199.516 110,203.5C 105.141,219.893 99.1405,235.893 92,251.5C 91.3486,253.235 91.5153,254.902 92.5,256.5C 91.7579,257.287 90.9246,257.953 90,258.5C 89.7306,261.352 88.8972,264.018 87.5,266.5C 86.3112,267.429 84.9778,267.762 83.5,267.5C 83.0371,270.482 82.7038,273.482 82.5,276.5C 81.5,276.5 80.5,276.5 79.5,276.5C 78.0263,284.808 75.3596,292.808 71.5,300.5C 71.8333,301.167 72.1667,301.833 72.5,302.5C 71.7528,302.736 70.9195,303.07 70,303.5C 69.3352,307.609 68.5018,311.609 67.5,315.5C 66.5,315.5 65.5,315.5 64.5,315.5C 64.0137,317.807 64.0137,319.973 64.5,322C 59.7798,332.591 54.9465,342.424 50,351.5C 47.1518,361.34 43.6518,370.84 39.5,380C 40.4107,383.375 39.4107,386.208 36.5,388.5C 36.5,382.5 36.5,376.5 36.5,370.5C 37.4995,256.668 37.8328,142.668 37.5,28.5C 183.167,28.5 328.833,28.5 474.5,28.5 Z"/></g>
<g><path style="opacity:1" fill="#0a5880" d="M 474.5,378.5 C 474.666,384.842 474.5,391.175 474,397.5C 468.113,391.812 461.947,386.479 455.5,381.5C 454.614,380.675 454.281,379.675 454.5,378.5C 452.61,378.703 451.11,378.037 450,376.5C 447.48,369.504 442.647,365.171 435.5,363.5C 435.649,362.448 435.483,361.448 435,360.5C 431.481,358.826 429.315,356.159 428.5,352.5C 426.409,352.682 424.409,352.348 422.5,351.5C 416.05,343.564 408.384,336.731 399.5,331C 396.527,328.027 393.527,325.027 390.5,322C 389.207,321.51 387.873,321.343 386.5,321.5C 386.649,320.448 386.483,319.448 386,318.5C 381.619,315.048 377.119,310.882 372.5,306C 368.693,304.86 366.193,302.36 365,298.5C 364.667,298.833 364.333,299.167 364,299.5C 360.878,295.031 356.712,292.198 351.5,291C 350.283,289.352 349.45,287.519 349,285.5C 348.333,284.167 347.667,284.167 347,285.5C 343.675,281.765 340.508,277.932 337.5,274C 336.551,273.383 335.718,273.549 335,274.5C 334.333,272.5 333,271.167 331,270.5C 329.331,268.831 328.498,266.831 328.5,264.5C 321.113,261.667 314.779,257.167 309.5,251C 307.725,249.561 305.725,248.561 303.5,248C 302.776,245.33 301.109,243.83 298.5,243.5C 298.579,242.07 298.246,240.736 297.5,239.5C 293.428,237.595 289.762,235.095 286.5,232C 281.396,227.439 276.73,222.439 272.5,217C 271.004,216.493 269.837,216.993 269,218.5C 268.297,213.796 265.63,211.13 261,210.5C 260.773,207.94 259.44,206.274 257,205.5C 256.517,204.552 256.351,203.552 256.5,202.5C 255.127,202.657 253.793,202.49 252.5,202C 249.043,198.927 246.043,195.427 243.5,191.5C 241.307,189.279 238.64,187.946 235.5,187.5C 234.833,186.167 234.167,184.833 233.5,183.5C 230.186,181.365 227.186,178.865 224.5,176C 223.167,175.667 221.833,175.333 220.5,175C 214.143,167.644 207.476,160.644 200.5,154C 198.473,152.121 196.14,150.954 193.5,150.5C 191.776,148.086 190.442,145.42 189.5,142.5C 184.554,142.065 180.72,139.731 178,135.5C 177.586,135.957 177.086,136.291 176.5,136.5C 174.688,129.353 170.355,124.353 163.5,121.5C 157.326,132.853 152.826,144.853 150,157.5C 147.234,161.241 144.734,165.241 142.5,169.5C 142.833,170.167 143.167,170.833 143.5,171.5C 138.378,181.037 134.545,191.037 132,201.5C 126.943,210.693 122.276,220.027 118,229.5C 117.169,236.061 115.669,242.394 113.5,248.5C 111.876,248.36 110.71,249.027 110,250.5C 105.063,264.645 99.7292,278.645 94,292.5C 91.6474,300.005 89.6474,307.338 88,314.5C 84.5075,319.477 81.5075,324.811 79,330.5C 66.156,363.537 52.156,396.203 37,428.5C 36.5001,415.171 36.3334,401.837 36.5,388.5C 39.4107,386.208 40.4107,383.375 39.5,380C 43.6518,370.84 47.1518,361.34 50,351.5C 54.9465,342.424 59.7798,332.591 64.5,322C 64.0137,319.973 64.0137,317.807 64.5,315.5C 65.5,315.5 66.5,315.5 67.5,315.5C 68.5018,311.609 69.3352,307.609 70,303.5C 70.9195,303.07 71.7528,302.736 72.5,302.5C 72.1667,301.833 71.8333,301.167 71.5,300.5C 75.3596,292.808 78.0263,284.808 79.5,276.5C 80.5,276.5 81.5,276.5 82.5,276.5C 82.7038,273.482 83.0371,270.482 83.5,267.5C 84.9778,267.762 86.3112,267.429 87.5,266.5C 88.8972,264.018 89.7306,261.352 90,258.5C 90.9246,257.953 91.7579,257.287 92.5,256.5C 91.5153,254.902 91.3486,253.235 92,251.5C 99.1405,235.893 105.141,219.893 110,203.5C 113.278,199.516 114.944,194.849 115,189.5C 120.561,180.811 124.561,171.477 127,161.5C 130.744,155.259 133.911,148.759 136.5,142C 137,139.5 137.5,137 138,134.5C 138.772,133.151 139.939,132.318 141.5,132C 141.043,131.586 140.709,131.086 140.5,130.5C 141.154,128.885 141.654,127.218 142,125.5C 143.469,122.095 145.303,118.928 147.5,116C 146.14,114.062 146.473,112.396 148.5,111C 147.483,109.951 147.316,108.784 148,107.5C 149.713,106.122 151.047,104.455 152,102.5C 151.952,99.4315 153.119,97.0982 155.5,95.5C 166.307,100.035 175.307,106.702 182.5,115.5C 183.086,115.291 183.586,114.957 184,114.5C 184.333,115.833 184.667,117.167 185,118.5C 189.809,120.345 192.809,123.678 194,128.5C 195.813,127.391 196.646,128.058 196.5,130.5C 198.861,130.674 201.194,131.007 203.5,131.5C 203.343,132.873 203.51,134.207 204,135.5C 206.331,137.66 208.831,139.66 211.5,141.5C 212.246,142.736 212.579,144.07 212.5,145.5C 213.5,145.5 214.5,145.5 215.5,145.5C 215.5,146.5 215.5,147.5 215.5,148.5C 216.873,148.343 218.207,148.51 219.5,149C 220.296,152.07 222.296,153.737 225.5,154C 226.304,155.771 227.471,157.271 229,158.5C 229.617,157.551 229.451,156.718 228.5,156C 229.167,155.333 229.833,155.333 230.5,156C 232.167,158.333 233.833,160.667 235.5,163C 236.448,163.483 237.448,163.649 238.5,163.5C 238.433,166.766 240.099,168.266 243.5,168C 245.623,170.799 248.29,172.799 251.5,174C 253.589,178.908 257.255,182.241 262.5,184C 265.681,188.846 269.848,192.679 275,195.5C 275.748,197.332 276.748,198.999 278,200.5C 278.333,200.167 278.667,199.833 279,199.5C 280.098,200.967 281.598,201.801 283.5,202C 285.155,203.444 285.822,205.278 285.5,207.5C 288.14,207.954 290.473,209.121 292.5,211C 298.446,216.946 304.446,222.946 310.5,229C 311.938,229.219 313.271,229.719 314.5,230.5C 319.229,235.962 324.395,240.962 330,245.5C 330.414,245.043 330.914,244.709 331.5,244.5C 333.903,246.305 335.57,248.638 336.5,251.5C 337.325,252.386 338.325,252.719 339.5,252.5C 339.384,255.91 341.05,257.244 344.5,256.5C 344.119,258.942 344.786,259.609 346.5,258.5C 348.167,261.5 350.5,263.833 353.5,265.5C 354.452,267.045 354.785,268.712 354.5,270.5C 361.145,271.154 365.478,274.654 367.5,281C 371.173,282.17 374.506,283.836 377.5,286C 378.167,287.333 378.833,288.667 379.5,290C 381.433,290.251 383.266,290.751 385,291.5C 387.241,295.298 389.574,298.964 392,302.5C 392.667,301.833 393.333,301.167 394,300.5C 394.98,302.059 395.813,303.726 396.5,305.5C 398.042,306.747 399.542,306.747 401,305.5C 401.273,307.101 401.773,308.601 402.5,310C 406.782,314.436 411.782,317.936 417.5,320.5C 417.281,321.675 417.614,322.675 418.5,323.5C 421.071,324.728 422.405,326.728 422.5,329.5C 423.873,329.343 425.207,329.51 426.5,330C 429.893,333.062 433.559,335.728 437.5,338C 439.044,340.925 440.711,343.758 442.5,346.5C 443.086,346.291 443.586,345.957 444,345.5C 449.395,353.5 456.061,360.167 464,365.5C 464.494,367.134 464.66,368.801 464.5,370.5C 466.288,370.215 467.955,370.548 469.5,371.5C 470.738,374.232 472.405,376.565 474.5,378.5 Z"/></g>
<g><path style="opacity:1" fill="#2b668d" d="M 175.5,177.5 C 176.5,177.5 177.5,177.5 178.5,177.5C 178.553,180.061 177.553,182.061 175.5,183.5C 174.306,181.484 174.306,179.484 175.5,177.5 Z"/></g>
<g><path style="opacity:1" fill="#206188" d="M 173.5,184.5 C 175.121,184.787 176.121,185.787 176.5,187.5C 173.692,193.673 171.192,200.006 169,206.5C 167.649,208.019 166.149,209.352 164.5,210.5C 164.167,210 163.833,209.5 163.5,209C 165.992,204.878 167.492,200.378 168,195.5C 170.868,192.392 172.702,188.725 173.5,184.5 Z"/></g>
<g><path style="opacity:1" fill="#31698f" d="M 161.5,212.5 C 162.496,212.414 163.329,212.748 164,213.5C 164.494,215.134 164.66,216.801 164.5,218.5C 163.5,218.5 162.5,218.5 161.5,218.5C 161.5,216.5 161.5,214.5 161.5,212.5 Z"/></g>
<g><path style="opacity:1" fill="#125b82" d="M 159.5,220.5 C 160.376,220.369 161.043,220.702 161.5,221.5C 160.691,223.071 160.357,224.738 160.5,226.5C 159.5,226.5 158.5,226.5 157.5,226.5C 157.253,224.142 157.919,222.142 159.5,220.5 Z"/></g>
<g><path style="opacity:1" fill="#29648b" d="M 154.5,228.5 C 156.026,229.105 157.026,230.271 157.5,232C 156.107,234.666 154.441,237.166 152.5,239.5C 152.709,240.086 153.043,240.586 153.5,241C 150.002,247.508 148.002,254.341 147.5,261.5C 141.693,266.011 139.026,272.011 139.5,279.5C 137.5,280.167 135.5,280.833 133.5,281.5C 135.969,274.431 137.802,267.098 139,259.5C 140.333,257.5 142,255.833 144,254.5C 145.799,249.311 147.299,243.978 148.5,238.5C 150.493,235.185 152.493,231.851 154.5,228.5 Z"/></g>
<g><path style="opacity:1" fill="#f3d04a" d="M 281.5,291.5 C 282.341,293.379 282.675,295.379 282.5,297.5C 276.833,297.5 271.167,297.5 265.5,297.5C 234.964,297.613 205.297,298.28 176.5,299.5C 171.93,298.559 167.263,298.226 162.5,298.5C 164.361,289.155 167.028,279.988 170.5,271C 173.429,267.915 175.429,264.249 176.5,260C 179.706,259.704 182.872,259.204 186,258.5C 187.667,259.167 189.333,259.833 191,260.5C 195.961,258.874 201.128,257.874 206.5,257.5C 208.036,258.249 209.369,259.249 210.5,260.5C 211.354,259.478 212.354,258.645 213.5,258C 217.152,257.501 220.818,257.335 224.5,257.5C 224.5,258.5 224.5,259.5 224.5,260.5C 227.617,260.128 230.617,260.128 233.5,260.5C 234.853,258.817 236.52,257.484 238.5,256.5C 241.951,258.428 245.618,259.761 249.5,260.5C 249.176,263.694 250.342,264.694 253,263.5C 253.739,265.221 254.573,266.887 255.5,268.5C 259.738,271.921 264.071,275.087 268.5,278C 271.912,283.376 276.245,287.876 281.5,291.5 Z"/></g>
<g><path style="opacity:1" fill="#2a658c" d="M 131.5,285.5 C 132.675,285.281 133.675,285.614 134.5,286.5C 133.626,288.747 133.292,291.08 133.5,293.5C 128.504,293.93 127.67,292.597 131,289.5C 131.49,288.207 131.657,286.873 131.5,285.5 Z"/></g>
<g><path style="opacity:1" fill="#fbefca" d="M 281.5,291.5 C 283.344,293.279 284.01,295.612 283.5,298.5C 277.31,298.823 271.31,298.49 265.5,297.5C 271.167,297.5 276.833,297.5 282.5,297.5C 282.675,295.379 282.341,293.379 281.5,291.5 Z"/></g>
<g><path style="opacity:1" fill="#f9e8af" d="M 162.5,298.5 C 167.263,298.226 171.93,298.559 176.5,299.5C 176.44,300.043 176.107,300.376 175.5,300.5C 171.033,299.886 166.7,299.22 162.5,298.5 Z"/></g>
<g><path style="opacity:1" fill="#26638a" d="M 126.5,294.5 C 128.948,294.085 130.281,295.085 130.5,297.5C 126.375,307.493 122.375,317.493 118.5,327.5C 116.15,330.035 114.65,333.035 114,336.5C 112.815,338.559 111.648,338.726 110.5,337C 113.463,330.543 115.296,323.71 116,316.5C 118.865,313.772 120.365,310.438 120.5,306.5C 122.288,306.785 123.955,306.452 125.5,305.5C 125.167,304.833 124.833,304.167 124.5,303.5C 126.26,300.788 126.927,297.788 126.5,294.5 Z"/></g>
<g><path style="opacity:1" fill="#d3711b" d="M 301.5,331.5 C 309.47,331.649 317.47,331.983 325.5,332.5C 330.198,335.85 335.198,338.683 340.5,341C 341.337,342.011 341.67,343.178 341.5,344.5C 344.357,345.333 347.023,346.666 349.5,348.5C 350.921,351.009 352.588,353.343 354.5,355.5C 355.451,354.674 356.451,354.508 357.5,355C 361.048,358.088 364.048,361.588 366.5,365.5C 367.325,366.386 368.325,366.719 369.5,366.5C 368.341,370.714 368.341,374.881 369.5,379C 368.833,379.167 368.167,379.333 367.5,379.5C 364.269,378.273 361.269,376.606 358.5,374.5C 357.522,374.977 356.689,375.643 356,376.5C 349.228,376.568 342.394,376.234 335.5,375.5C 329.728,377.651 323.895,377.651 318,375.5C 312.131,376.678 306.298,376.678 300.5,375.5C 296.393,377.87 292.226,377.87 288,375.5C 263.124,376.418 238.124,376.752 213,376.5C 208.335,374.612 203.502,374.612 198.5,376.5C 185.952,376.366 173.619,376.033 161.5,375.5C 158.167,376.167 154.833,376.833 151.5,377.5C 144.3,376.62 136.967,375.62 129.5,374.5C 132.051,367.682 133.884,360.682 135,353.5C 137.761,352.501 139.094,350.501 139,347.5C 141.976,343.039 144.809,338.539 147.5,334C 156.992,334.059 166.659,333.892 176.5,333.5C 183.645,334.398 190.812,335.065 198,335.5C 201.846,335.669 205.513,335.002 209,333.5C 232.099,333.924 254.932,334.257 277.5,334.5C 285.626,333.495 293.626,332.495 301.5,331.5 Z"/></g>
<g><path style="opacity:1" fill="#326a90" d="M 108.5,340.5 C 109.5,340.5 110.5,340.5 111.5,340.5C 110.712,344.868 109.712,349.201 108.5,353.5C 107.167,352.5 105.833,351.5 104.5,350.5C 105.592,347.906 107.259,345.739 109.5,344C 108.663,342.989 108.33,341.822 108.5,340.5 Z"/></g>
<g><path style="opacity:1" fill="#1f6087" d="M 104.5,353.5 C 108.069,355.146 108.402,357.312 105.5,360C 106.33,361.465 106.496,362.965 106,364.5C 104.072,368.119 102.572,371.952 101.5,376C 100.728,377.221 99.7282,378.221 98.5,379C 98.9574,379.414 99.2907,379.914 99.5,380.5C 95.9409,388.44 91.9409,396.107 87.5,403.5C 86.188,401.264 86.5213,399.264 88.5,397.5C 87.3999,394.365 88.2332,391.698 91,389.5C 92.5779,385.339 93.7445,381.006 94.5,376.5C 95.4255,377.641 96.2588,377.641 97,376.5C 98.768,372.519 99.768,368.519 100,364.5C 101.831,361.686 103.665,358.852 105.5,356C 104.748,355.329 104.414,354.496 104.5,353.5 Z"/></g>
<g><path style="opacity:1" fill="#29658b" d="M 84.5,404.5 C 87.374,407.693 86.5407,409.693 82,410.5C 81.1667,410.167 80.3333,409.833 79.5,409.5C 80.8246,407.408 82.4913,405.741 84.5,404.5 Z"/></g>
<g><path style="opacity:1" fill="#165c84" d="M 81.5,419.5 C 79.712,419.785 78.0453,419.452 76.5,418.5C 76.8627,417.817 77.1961,417.15 77.5,416.5C 79.7906,411.033 81.4572,411.2 82.5,417C 82.472,418.07 82.1386,418.903 81.5,419.5 Z"/></g>
<g><path style="opacity:1" fill="#105b82" d="M 75.5,416.5 C 75.5,417.833 75.5,419.167 75.5,420.5C 72.9781,418.998 72.9781,417.665 75.5,416.5 Z"/></g>
<g><path style="opacity:1" fill="#92adc8" d="M 75.5,416.5 C 76.1667,416.5 76.8333,416.5 77.5,416.5C 77.1961,417.15 76.8627,417.817 76.5,418.5C 78.0453,419.452 79.712,419.785 81.5,419.5C 79.7354,420.461 77.7354,420.795 75.5,420.5C 75.5,419.167 75.5,417.833 75.5,416.5 Z"/></g>
<g><path style="opacity:1" fill="#e1e4e0" d="M 206.5,420.5 C 210.744,424.355 214.91,424.355 219,420.5C 222.13,423.11 225.296,423.11 228.5,420.5C 229.795,421.098 231.128,421.598 232.5,422C 240.079,422.184 247.579,422.684 255,423.5C 267.311,422.535 279.645,422.535 292,423.5C 295.466,420.932 298.966,420.932 302.5,423.5C 312.91,423.969 323.41,423.303 334,421.5C 339.962,421.303 345.795,421.97 351.5,423.5C 377.069,422.546 403.402,422.546 430.5,423.5C 432.993,427.842 436.66,430.342 441.5,431C 442.878,432.713 444.545,434.047 446.5,435C 451.443,441.037 456.276,447.204 461,453.5C 465.199,458.034 469.699,462.201 474.5,466C 346.167,466.5 217.834,466.667 89.5,466.5C 89.3359,463.813 89.5026,461.146 90,458.5C 95.0678,453.698 98.0678,447.698 99,440.5C 99.9533,438.545 101.287,436.878 103,435.5C 103.333,432.167 103.667,428.833 104,425.5C 104.75,424.874 105.584,424.374 106.5,424C 112.721,422.98 118.721,423.48 124.5,425.5C 128.182,423.954 132.015,422.954 136,422.5C 147.15,423.255 158.316,423.755 169.5,424C 170.025,424.692 170.692,425.192 171.5,425.5C 173.843,424.077 176.343,423.077 179,422.5C 183.801,422.463 188.635,422.797 193.5,423.5C 195.839,423.331 198.006,422.664 200,421.5C 202.45,423.885 204.617,423.551 206.5,420.5 Z"/></g>
<g><path style="opacity:1" fill="#376d92" d="M 76.5,425.5 C 76.5,424.5 76.5,423.5 76.5,422.5C 77.5,422.5 78.5,422.5 79.5,422.5C 79.8795,425.567 78.8795,426.567 76.5,425.5 Z"/></g>
<g><path style="opacity:1" fill="#1c5e85" d="M 73.5,426.5 C 75.256,427.552 75.9227,429.219 75.5,431.5C 73.9523,435.598 72.1189,439.598 70,443.5C 69.8184,446.226 69.3184,448.893 68.5,451.5C 67.8333,451.833 67.1667,452.167 66.5,452.5C 65.3452,449.554 65.1786,446.554 66,443.5C 67.8518,437.406 70.3518,431.74 73.5,426.5 Z"/></g>
<g><path style="opacity:1" fill="#8aa7c4" d="M 73.5,426.5 C 74.209,425.596 75.209,425.263 76.5,425.5C 76.7947,427.735 76.4614,429.735 75.5,431.5C 75.9227,429.219 75.256,427.552 73.5,426.5 Z"/></g>
<g><path style="opacity:1" fill="#29658c" d="M 59.5,456.5 C 63.5,455.833 65.1667,457.5 64.5,461.5C 62.5,461.5 60.5,461.5 58.5,461.5C 58.366,459.708 58.6993,458.042 59.5,456.5 Z"/></g>
</svg>
