<?xml version="1.0" encoding="UTF-8"?>
<!DOCTYPE svg PUBLIC "-//W3C//DTD SVG 1.1//EN" "http://www.w3.org/Graphics/SVG/1.1/DTD/svg11.dtd">
<svg xmlns="http://www.w3.org/2000/svg" version="1.1" width="1122px" height="827px" style="shape-rendering:geometricPrecision; text-rendering:geometricPrecision; image-rendering:optimizeQuality; fill-rule:evenodd; clip-rule:evenodd" xmlns:xlink="http://www.w3.org/1999/xlink">
<g><path style="opacity:0.997" fill="#e0e3df" d="M 779.5,378.5 C 777.405,376.565 775.738,374.232 774.5,371.5C 772.955,370.548 771.288,370.215 769.5,370.5C 769.66,368.801 769.494,367.134 769,365.5C 761.061,360.167 754.395,353.5 749,345.5C 748.586,345.957 748.086,346.291 747.5,346.5C 745.711,343.758 744.044,340.925 742.5,338C 738.559,335.728 734.893,333.062 731.5,330C 730.207,329.51 728.873,329.343 727.5,329.5C 727.405,326.728 726.071,324.728 723.5,323.5C 722.614,322.675 722.281,321.675 722.5,320.5C 716.782,317.936 711.782,314.436 707.5,310C 706.773,308.601 706.273,307.101 706,305.5C 704.542,306.747 703.042,306.747 701.5,305.5C 700.813,303.726 699.98,302.059 699,300.5C 698.333,301.167 697.667,301.833 697,302.5C 694.574,298.964 692.241,295.298 690,291.5C 688.266,290.751 686.433,290.251 684.5,290C 683.833,288.667 683.167,287.333 682.5,286C 679.506,283.836 676.173,282.17 672.5,281C 670.478,274.654 666.145,271.154 659.5,270.5C 659.785,268.712 659.452,267.045 658.5,265.5C 655.5,263.833 653.167,261.5 651.5,258.5C 649.786,259.609 649.119,258.942 649.5,256.5C 646.05,257.244 644.384,255.91 644.5,252.5C 643.325,252.719 642.325,252.386 641.5,251.5C 640.57,248.638 638.903,246.305 636.5,244.5C 635.914,244.709 635.414,245.043 635,245.5C 629.395,240.962 624.229,235.962 619.5,230.5C 618.271,229.719 616.938,229.219 615.5,229C 609.446,222.946 603.446,216.946 597.5,211C 595.473,209.121 593.14,207.954 590.5,207.5C 590.822,205.278 590.155,203.444 588.5,202C 586.598,201.801 585.098,200.967 584,199.5C 583.667,199.833 583.333,200.167 583,200.5C 581.748,198.999 580.748,197.332 580,195.5C 574.848,192.679 570.681,188.846 567.5,184C 562.255,182.241 558.589,178.908 556.5,174C 553.29,172.799 550.623,170.799 548.5,168C 545.099,168.266 543.433,166.766 543.5,163.5C 542.448,163.649 541.448,163.483 540.5,163C 538.833,160.667 537.167,158.333 535.5,156C 534.833,155.333 534.167,155.333 533.5,156C 534.451,156.718 534.617,157.551 534,158.5C 532.471,157.271 531.304,155.771 530.5,154C 527.296,153.737 525.296,152.07 524.5,149C 523.207,148.51 521.873,148.343 520.5,148.5C 520.5,147.5 520.5,146.5 520.5,145.5C 519.5,145.5 518.5,145.5 517.5,145.5C 517.579,144.07 517.246,142.736 516.5,141.5C 513.831,139.66 511.331,137.66 509,135.5C 508.51,134.207 508.343,132.873 508.5,131.5C 506.194,131.007 503.861,130.674 501.5,130.5C 501.646,128.058 500.813,127.391 499,128.5C 497.809,123.678 494.809,120.345 490,118.5C 489.667,117.167 489.333,115.833 489,114.5C 488.586,114.957 488.086,115.291 487.5,115.5C 480.307,106.702 471.307,100.035 460.5,95.5C 458.119,97.0982 456.952,99.4315 457,102.5C 456.047,104.455 454.713,106.122 453,107.5C 452.316,108.784 452.483,109.951 453.5,111C 451.473,112.396 451.14,114.062 452.5,116C 450.303,118.928 448.469,122.095 447,125.5C 446.654,127.218 446.154,128.885 445.5,130.5C 445.709,131.086 446.043,131.586 446.5,132C 444.939,132.318 443.772,133.151 443,134.5C 442.5,137 442,139.5 441.5,142C 438.911,148.759 435.744,155.259 432,161.5C 429.561,171.477 425.561,180.811 420,189.5C 419.944,194.849 418.278,199.516 415,203.5C 410.141,219.893 404.141,235.893 397,251.5C 396.349,253.235 396.515,254.902 397.5,256.5C 396.758,257.287 395.925,257.953 395,258.5C 394.731,261.352 393.897,264.018 392.5,266.5C 391.311,267.429 389.978,267.762 388.5,267.5C 388.037,270.482 387.704,273.482 387.5,276.5C 386.5,276.5 385.5,276.5 384.5,276.5C 383.026,284.808 380.36,292.808 376.5,300.5C 376.833,301.167 377.167,301.833 377.5,302.5C 376.753,302.736 375.92,303.07 375,303.5C 374.335,307.609 373.502,311.609 372.5,315.5C 371.5,315.5 370.5,315.5 369.5,315.5C 369.014,317.807 369.014,319.973 369.5,322C 364.78,332.591 359.946,342.424 355,351.5C 352.152,361.34 348.652,370.84 344.5,380C 345.411,383.375 344.411,386.208 341.5,388.5C 341.5,268.167 341.5,147.833 341.5,27.5C 487.5,27.5 633.5,27.5 779.5,27.5C 779.5,144.5 779.5,261.5 779.5,378.5 Z"/></g>
<g><path style="opacity:1" fill="#0a5880" d="M 779.5,378.5 C 779.5,384.833 779.5,391.167 779.5,397.5C 773.383,391.937 767.05,386.604 760.5,381.5C 759.614,380.675 759.281,379.675 759.5,378.5C 757.61,378.703 756.11,378.037 755,376.5C 752.48,369.504 747.647,365.171 740.5,363.5C 740.649,362.448 740.483,361.448 740,360.5C 736.481,358.826 734.315,356.159 733.5,352.5C 731.409,352.682 729.409,352.348 727.5,351.5C 721.05,343.564 713.384,336.731 704.5,331C 701.527,328.027 698.527,325.027 695.5,322C 694.207,321.51 692.873,321.343 691.5,321.5C 691.649,320.448 691.483,319.448 691,318.5C 686.619,315.048 682.119,310.882 677.5,306C 673.693,304.86 671.193,302.36 670,298.5C 669.667,298.833 669.333,299.167 669,299.5C 665.878,295.031 661.712,292.198 656.5,291C 655.283,289.352 654.45,287.519 654,285.5C 653.333,284.167 652.667,284.167 652,285.5C 648.675,281.765 645.508,277.932 642.5,274C 641.551,273.383 640.718,273.549 640,274.5C 639.333,272.5 638,271.167 636,270.5C 634.331,268.831 633.498,266.831 633.5,264.5C 626.113,261.667 619.779,257.167 614.5,251C 612.725,249.561 610.725,248.561 608.5,248C 607.776,245.33 606.109,243.83 603.5,243.5C 603.579,242.07 603.246,240.736 602.5,239.5C 598.428,237.595 594.762,235.095 591.5,232C 586.396,227.439 581.73,222.439 577.5,217C 576.004,216.493 574.837,216.993 574,218.5C 573.297,213.796 570.63,211.13 566,210.5C 565.773,207.94 564.44,206.274 562,205.5C 561.517,204.552 561.351,203.552 561.5,202.5C 560.127,202.657 558.793,202.49 557.5,202C 554.043,198.927 551.043,195.427 548.5,191.5C 546.307,189.279 543.64,187.946 540.5,187.5C 539.833,186.167 539.167,184.833 538.5,183.5C 535.186,181.365 532.186,178.865 529.5,176C 528.167,175.667 526.833,175.333 525.5,175C 519.143,167.644 512.476,160.644 505.5,154C 503.473,152.121 501.14,150.954 498.5,150.5C 496.776,148.086 495.442,145.42 494.5,142.5C 489.554,142.065 485.72,139.731 483,135.5C 482.586,135.957 482.086,136.291 481.5,136.5C 479.688,129.353 475.355,124.353 468.5,121.5C 462.326,132.853 457.826,144.853 455,157.5C 452.234,161.241 449.734,165.241 447.5,169.5C 447.833,170.167 448.167,170.833 448.5,171.5C 443.378,181.037 439.545,191.037 437,201.5C 431.943,210.693 427.276,220.027 423,229.5C 422.169,236.061 420.669,242.394 418.5,248.5C 416.876,248.36 415.71,249.027 415,250.5C 410.063,264.645 404.729,278.645 399,292.5C 396.647,300.005 394.647,307.338 393,314.5C 389.508,319.477 386.508,324.811 384,330.5C 371.212,363.745 357.045,396.412 341.5,428.5C 341.5,415.167 341.5,401.833 341.5,388.5C 344.411,386.208 345.411,383.375 344.5,380C 348.652,370.84 352.152,361.34 355,351.5C 359.946,342.424 364.78,332.591 369.5,322C 369.014,319.973 369.014,317.807 369.5,315.5C 370.5,315.5 371.5,315.5 372.5,315.5C 373.502,311.609 374.335,307.609 375,303.5C 375.92,303.07 376.753,302.736 377.5,302.5C 377.167,301.833 376.833,301.167 376.5,300.5C 380.36,292.808 383.026,284.808 384.5,276.5C 385.5,276.5 386.5,276.5 387.5,276.5C 387.704,273.482 388.037,270.482 388.5,267.5C 389.978,267.762 391.311,267.429 392.5,266.5C 393.897,264.018 394.731,261.352 395,258.5C 395.925,257.953 396.758,257.287 397.5,256.5C 396.515,254.902 396.349,253.235 397,251.5C 404.141,235.893 410.141,219.893 415,203.5C 418.278,199.516 419.944,194.849 420,189.5C 425.561,180.811 429.561,171.477 432,161.5C 435.744,155.259 438.911,148.759 441.5,142C 442,139.5 442.5,137 443,134.5C 443.772,133.151 444.939,132.318 446.5,132C 446.043,131.586 445.709,131.086 445.5,130.5C 446.154,128.885 446.654,127.218 447,125.5C 448.469,122.095 450.303,118.928 452.5,116C 451.14,114.062 451.473,112.396 453.5,111C 452.483,109.951 452.316,108.784 453,107.5C 454.713,106.122 456.047,104.455 457,102.5C 456.952,99.4315 458.119,97.0982 460.5,95.5C 471.307,100.035 480.307,106.702 487.5,115.5C 488.086,115.291 488.586,114.957 489,114.5C 489.333,115.833 489.667,117.167 490,118.5C 494.809,120.345 497.809,123.678 499,128.5C 500.813,127.391 501.646,128.058 501.5,130.5C 503.861,130.674 506.194,131.007 508.5,131.5C 508.343,132.873 508.51,134.207 509,135.5C 511.331,137.66 513.831,139.66 516.5,141.5C 517.246,142.736 517.579,144.07 517.5,145.5C 518.5,145.5 519.5,145.5 520.5,145.5C 520.5,146.5 520.5,147.5 520.5,148.5C 521.873,148.343 523.207,148.51 524.5,149C 525.296,152.07 527.296,153.737 530.5,154C 531.304,155.771 532.471,157.271 534,158.5C 534.617,157.551 534.451,156.718 533.5,156C 534.167,155.333 534.833,155.333 535.5,156C 537.167,158.333 538.833,160.667 540.5,163C 541.448,163.483 542.448,163.649 543.5,163.5C 543.433,166.766 545.099,168.266 548.5,168C 550.623,170.799 553.29,172.799 556.5,174C 558.589,178.908 562.255,182.241 567.5,184C 570.681,188.846 574.848,192.679 580,195.5C 580.748,197.332 581.748,198.999 583,200.5C 583.333,200.167 583.667,199.833 584,199.5C 585.098,200.967 586.598,201.801 588.5,202C 590.155,203.444 590.822,205.278 590.5,207.5C 593.14,207.954 595.473,209.121 597.5,211C 603.446,216.946 609.446,222.946 615.5,229C 616.938,229.219 618.271,229.719 619.5,230.5C 624.229,235.962 629.395,240.962 635,245.5C 635.414,245.043 635.914,244.709 636.5,244.5C 638.903,246.305 640.57,248.638 641.5,251.5C 642.325,252.386 643.325,252.719 644.5,252.5C 644.384,255.91 646.05,257.244 649.5,256.5C 649.119,258.942 649.786,259.609 651.5,258.5C 653.167,261.5 655.5,263.833 658.5,265.5C 659.452,267.045 659.785,268.712 659.5,270.5C 666.145,271.154 670.478,274.654 672.5,281C 676.173,282.17 679.506,283.836 682.5,286C 683.167,287.333 683.833,288.667 684.5,290C 686.433,290.251 688.266,290.751 690,291.5C 692.241,295.298 694.574,298.964 697,302.5C 697.667,301.833 698.333,301.167 699,300.5C 699.98,302.059 700.813,303.726 701.5,305.5C 703.042,306.747 704.542,306.747 706,305.5C 706.273,307.101 706.773,308.601 707.5,310C 711.782,314.436 716.782,317.936 722.5,320.5C 722.281,321.675 722.614,322.675 723.5,323.5C 726.071,324.728 727.405,326.728 727.5,329.5C 728.873,329.343 730.207,329.51 731.5,330C 734.893,333.062 738.559,335.728 742.5,338C 744.044,340.925 745.711,343.758 747.5,346.5C 748.086,346.291 748.586,345.957 749,345.5C 754.395,353.5 761.061,360.167 769,365.5C 769.494,367.134 769.66,368.801 769.5,370.5C 771.288,370.215 772.955,370.548 774.5,371.5C 775.738,374.232 777.405,376.565 779.5,378.5 Z"/></g>
<g><path style="opacity:1" fill="#fefefe" d="M 779.5,397.5 C 779.5,420.167 779.5,442.833 779.5,465.5C 774.574,462.079 770.074,458.079 766,453.5C 761.276,447.204 756.443,441.037 751.5,435C 749.545,434.047 747.878,432.713 746.5,431C 741.66,430.342 737.993,427.842 735.5,423.5C 708.402,422.546 682.069,422.546 656.5,423.5C 650.795,421.97 644.962,421.303 639,421.5C 633.347,421.276 627.847,421.943 622.5,423.5C 617.362,422.587 612.362,422.587 607.5,423.5C 603.966,420.932 600.466,420.932 597,423.5C 584.645,422.535 572.311,422.535 560,423.5C 552.579,422.684 545.079,422.184 537.5,422C 536.128,421.598 534.795,421.098 533.5,420.5C 530.296,423.11 527.13,423.11 524,420.5C 520.075,424.41 516.075,424.41 512,420.5C 509.809,423.482 507.476,423.815 505,421.5C 503.006,422.664 500.839,423.331 498.5,423.5C 493.635,422.797 488.801,422.463 484,422.5C 481.343,423.077 478.843,424.077 476.5,425.5C 475.692,425.192 475.025,424.692 474.5,424C 463.316,423.755 452.15,423.255 441,422.5C 437.015,422.954 433.182,423.954 429.5,425.5C 423.721,423.48 417.721,422.98 411.5,424C 410.584,424.374 409.75,424.874 409,425.5C 408.667,428.833 408.333,432.167 408,435.5C 404.361,439.02 402.361,443.353 402,448.5C 400.139,450.888 398.806,453.554 398,456.5C 397,457.167 396,457.833 395,458.5C 394.503,460.81 394.337,463.143 394.5,465.5C 376.833,465.5 359.167,465.5 341.5,465.5C 341.5,453.167 341.5,440.833 341.5,428.5C 357.045,396.412 371.212,363.745 384,330.5C 386.508,324.811 389.508,319.477 393,314.5C 394.647,307.338 396.647,300.005 399,292.5C 404.729,278.645 410.063,264.645 415,250.5C 415.71,249.027 416.876,248.36 418.5,248.5C 420.669,242.394 422.169,236.061 423,229.5C 427.276,220.027 431.943,210.693 437,201.5C 439.545,191.037 443.378,181.037 448.5,171.5C 448.167,170.833 447.833,170.167 447.5,169.5C 449.734,165.241 452.234,161.241 455,157.5C 457.826,144.853 462.326,132.853 468.5,121.5C 475.355,124.353 479.688,129.353 481.5,136.5C 482.086,136.291 482.586,135.957 483,135.5C 485.72,139.731 489.554,142.065 494.5,142.5C 495.442,145.42 496.776,148.086 498.5,150.5C 501.14,150.954 503.473,152.121 505.5,154C 512.476,160.644 519.143,167.644 525.5,175C 526.833,175.333 528.167,175.667 529.5,176C 532.186,178.865 535.186,181.365 538.5,183.5C 539.167,184.833 539.833,186.167 540.5,187.5C 543.64,187.946 546.307,189.279 548.5,191.5C 551.043,195.427 554.043,198.927 557.5,202C 558.793,202.49 560.127,202.657 561.5,202.5C 561.351,203.552 561.517,204.552 562,205.5C 564.44,206.274 565.773,207.94 566,210.5C 570.63,211.13 573.297,213.796 574,218.5C 574.837,216.993 576.004,216.493 577.5,217C 581.73,222.439 586.396,227.439 591.5,232C 594.762,235.095 598.428,237.595 602.5,239.5C 603.246,240.736 603.579,242.07 603.5,243.5C 606.109,243.83 607.776,245.33 608.5,248C 610.725,248.561 612.725,249.561 614.5,251C 619.779,257.167 626.113,261.667 633.5,264.5C 633.498,266.831 634.331,268.831 636,270.5C 638,271.167 639.333,272.5 640,274.5C 640.718,273.549 641.551,273.383 642.5,274C 645.508,277.932 648.675,281.765 652,285.5C 652.667,284.167 653.333,284.167 654,285.5C 654.45,287.519 655.283,289.352 656.5,291C 661.712,292.198 665.878,295.031 669,299.5C 669.333,299.167 669.667,298.833 670,298.5C 671.193,302.36 673.693,304.86 677.5,306C 682.119,310.882 686.619,315.048 691,318.5C 691.483,319.448 691.649,320.448 691.5,321.5C 692.873,321.343 694.207,321.51 695.5,322C 698.527,325.027 701.527,328.027 704.5,331C 713.384,336.731 721.05,343.564 727.5,351.5C 729.409,352.348 731.409,352.682 733.5,352.5C 734.315,356.159 736.481,358.826 740,360.5C 740.483,361.448 740.649,362.448 740.5,363.5C 747.647,365.171 752.48,369.504 755,376.5C 756.11,378.037 757.61,378.703 759.5,378.5C 759.281,379.675 759.614,380.675 760.5,381.5C 767.05,386.604 773.383,391.937 779.5,397.5 Z"/></g>
<g><path style="opacity:1" fill="#2b668d" d="M 480.5,177.5 C 481.5,177.5 482.5,177.5 483.5,177.5C 483.553,180.061 482.553,182.061 480.5,183.5C 479.306,181.484 479.306,179.484 480.5,177.5 Z"/></g>
<g><path style="opacity:1" fill="#206188" d="M 478.5,184.5 C 480.121,184.787 481.121,185.787 481.5,187.5C 478.692,193.673 476.192,200.006 474,206.5C 472.649,208.019 471.149,209.352 469.5,210.5C 469.167,210 468.833,209.5 468.5,209C 470.992,204.878 472.492,200.378 473,195.5C 475.868,192.392 477.702,188.725 478.5,184.5 Z"/></g>
<g><path style="opacity:1" fill="#31698f" d="M 466.5,212.5 C 467.496,212.414 468.329,212.748 469,213.5C 469.494,215.134 469.66,216.801 469.5,218.5C 468.5,218.5 467.5,218.5 466.5,218.5C 466.5,216.5 466.5,214.5 466.5,212.5 Z"/></g>
<g><path style="opacity:1" fill="#125b82" d="M 464.5,220.5 C 465.376,220.369 466.043,220.702 466.5,221.5C 465.691,223.071 465.357,224.738 465.5,226.5C 464.5,226.5 463.5,226.5 462.5,226.5C 462.253,224.142 462.919,222.142 464.5,220.5 Z"/></g>
<g><path style="opacity:1" fill="#29648b" d="M 459.5,228.5 C 461.026,229.105 462.026,230.271 462.5,232C 461.107,234.666 459.441,237.166 457.5,239.5C 457.709,240.086 458.043,240.586 458.5,241C 455.002,247.508 453.002,254.341 452.5,261.5C 446.693,266.011 444.026,272.011 444.5,279.5C 442.5,280.167 440.5,280.833 438.5,281.5C 440.969,274.431 442.802,267.098 444,259.5C 445.333,257.5 447,255.833 449,254.5C 450.799,249.311 452.299,243.978 453.5,238.5C 455.493,235.185 457.493,231.851 459.5,228.5 Z"/></g>
<g><path style="opacity:1" fill="#f3d04a" d="M 586.5,291.5 C 587.341,293.379 587.675,295.379 587.5,297.5C 581.833,297.5 576.167,297.5 570.5,297.5C 539.964,297.613 510.297,298.28 481.5,299.5C 476.93,298.559 472.263,298.226 467.5,298.5C 469.361,289.155 472.028,279.988 475.5,271C 478.429,267.915 480.429,264.249 481.5,260C 484.706,259.704 487.872,259.204 491,258.5C 492.667,259.167 494.333,259.833 496,260.5C 500.961,258.874 506.128,257.874 511.5,257.5C 513.036,258.249 514.369,259.249 515.5,260.5C 516.354,259.478 517.354,258.645 518.5,258C 522.152,257.501 525.818,257.335 529.5,257.5C 529.5,258.5 529.5,259.5 529.5,260.5C 532.617,260.128 535.617,260.128 538.5,260.5C 539.853,258.817 541.52,257.484 543.5,256.5C 546.951,258.428 550.618,259.761 554.5,260.5C 554.176,263.694 555.342,264.694 558,263.5C 558.739,265.221 559.573,266.887 560.5,268.5C 564.738,271.921 569.071,275.087 573.5,278C 576.912,283.376 581.245,287.876 586.5,291.5 Z"/></g>
<g><path style="opacity:1" fill="#2a658c" d="M 436.5,285.5 C 437.675,285.281 438.675,285.614 439.5,286.5C 438.626,288.747 438.292,291.08 438.5,293.5C 433.504,293.93 432.67,292.597 436,289.5C 436.49,288.207 436.657,286.873 436.5,285.5 Z"/></g>
<g><path style="opacity:1" fill="#fbefca" d="M 586.5,291.5 C 588.344,293.279 589.01,295.612 588.5,298.5C 582.31,298.823 576.31,298.49 570.5,297.5C 576.167,297.5 581.833,297.5 587.5,297.5C 587.675,295.379 587.341,293.379 586.5,291.5 Z"/></g>
<g><path style="opacity:1" fill="#f9e8af" d="M 467.5,298.5 C 472.263,298.226 476.93,298.559 481.5,299.5C 481.44,300.043 481.107,300.376 480.5,300.5C 476.033,299.886 471.7,299.22 467.5,298.5 Z"/></g>
<g><path style="opacity:1" fill="#26638a" d="M 431.5,294.5 C 433.948,294.085 435.281,295.085 435.5,297.5C 431.375,307.493 427.375,317.493 423.5,327.5C 421.15,330.035 419.65,333.035 419,336.5C 417.815,338.559 416.648,338.726 415.5,337C 418.463,330.543 420.296,323.71 421,316.5C 423.865,313.772 425.365,310.438 425.5,306.5C 427.288,306.785 428.955,306.452 430.5,305.5C 430.167,304.833 429.833,304.167 429.5,303.5C 431.26,300.788 431.927,297.788 431.5,294.5 Z"/></g>
<g><path style="opacity:1" fill="#d3711b" d="M 606.5,331.5 C 614.47,331.649 622.47,331.983 630.5,332.5C 635.198,335.85 640.198,338.683 645.5,341C 646.337,342.011 646.67,343.178 646.5,344.5C 649.357,345.333 652.023,346.666 654.5,348.5C 655.921,351.009 657.588,353.343 659.5,355.5C 660.451,354.674 661.451,354.508 662.5,355C 666.048,358.088 669.048,361.588 671.5,365.5C 672.325,366.386 673.325,366.719 674.5,366.5C 673.341,370.714 673.341,374.881 674.5,379C 673.833,379.167 673.167,379.333 672.5,379.5C 669.269,378.273 666.269,376.606 663.5,374.5C 662.522,374.977 661.689,375.643 661,376.5C 654.228,376.568 647.394,376.234 640.5,375.5C 634.728,377.651 628.895,377.651 623,375.5C 617.131,376.678 611.298,376.678 605.5,375.5C 601.393,377.87 597.226,377.87 593,375.5C 568.124,376.418 543.124,376.752 518,376.5C 513.335,374.612 508.502,374.612 503.5,376.5C 490.952,376.366 478.619,376.033 466.5,375.5C 463.167,376.167 459.833,376.833 456.5,377.5C 449.3,376.62 441.967,375.62 434.5,374.5C 437.051,367.682 438.884,360.682 440,353.5C 442.761,352.501 444.094,350.501 444,347.5C 446.976,343.039 449.809,338.539 452.5,334C 461.992,334.059 471.659,333.892 481.5,333.5C 488.645,334.398 495.812,335.065 503,335.5C 506.846,335.669 510.513,335.002 514,333.5C 537.099,333.924 559.932,334.257 582.5,334.5C 590.626,333.495 598.626,332.495 606.5,331.5 Z"/></g>
<g><path style="opacity:1" fill="#326a90" d="M 413.5,340.5 C 414.5,340.5 415.5,340.5 416.5,340.5C 415.712,344.868 414.712,349.201 413.5,353.5C 412.167,352.5 410.833,351.5 409.5,350.5C 410.592,347.906 412.259,345.739 414.5,344C 413.663,342.989 413.33,341.822 413.5,340.5 Z"/></g>
<g><path style="opacity:1" fill="#1f6087" d="M 409.5,353.5 C 413.069,355.146 413.402,357.312 410.5,360C 411.33,361.465 411.496,362.965 411,364.5C 409.072,368.119 407.572,371.952 406.5,376C 405.728,377.221 404.728,378.221 403.5,379C 403.957,379.414 404.291,379.914 404.5,380.5C 400.941,388.44 396.941,396.107 392.5,403.5C 391.188,401.264 391.521,399.264 393.5,397.5C 392.4,394.365 393.233,391.698 396,389.5C 397.578,385.339 398.745,381.006 399.5,376.5C 400.425,377.641 401.259,377.641 402,376.5C 403.768,372.519 404.768,368.519 405,364.5C 406.831,361.686 408.665,358.852 410.5,356C 409.748,355.329 409.414,354.496 409.5,353.5 Z"/></g>
<g><path style="opacity:1" fill="#29658b" d="M 389.5,404.5 C 392.374,407.693 391.541,409.693 387,410.5C 386.167,410.167 385.333,409.833 384.5,409.5C 385.825,407.408 387.491,405.741 389.5,404.5 Z"/></g>
<g><path style="opacity:1" fill="#165c84" d="M 386.5,419.5 C 384.712,419.785 383.045,419.452 381.5,418.5C 381.863,417.817 382.196,417.15 382.5,416.5C 384.791,411.033 386.457,411.2 387.5,417C 387.472,418.07 387.139,418.903 386.5,419.5 Z"/></g>
<g><path style="opacity:1" fill="#105b82" d="M 380.5,416.5 C 380.5,417.833 380.5,419.167 380.5,420.5C 377.978,418.998 377.978,417.665 380.5,416.5 Z"/></g>
<g><path style="opacity:1" fill="#92adc8" d="M 380.5,416.5 C 381.167,416.5 381.833,416.5 382.5,416.5C 382.196,417.15 381.863,417.817 381.5,418.5C 383.045,419.452 384.712,419.785 386.5,419.5C 384.735,420.461 382.735,420.795 380.5,420.5C 380.5,419.167 380.5,417.833 380.5,416.5 Z"/></g>
<g><path style="opacity:1" fill="#e1e4e0" d="M 779.5,465.5 C 633.5,466.833 487.5,466.833 341.5,465.5C 359.167,465.5 376.833,465.5 394.5,465.5C 394.337,463.143 394.503,460.81 395,458.5C 396,457.833 397,457.167 398,456.5C 398.806,453.554 400.139,450.888 402,448.5C 402.361,443.353 404.361,439.02 408,435.5C 408.333,432.167 408.667,428.833 409,425.5C 409.75,424.874 410.584,424.374 411.5,424C 417.721,422.98 423.721,423.48 429.5,425.5C 433.182,423.954 437.015,422.954 441,422.5C 452.15,423.255 463.316,423.755 474.5,424C 475.025,424.692 475.692,425.192 476.5,425.5C 478.843,424.077 481.343,423.077 484,422.5C 488.801,422.463 493.635,422.797 498.5,423.5C 500.839,423.331 503.006,422.664 505,421.5C 507.476,423.815 509.809,423.482 512,420.5C 516.075,424.41 520.075,424.41 524,420.5C 527.13,423.11 530.296,423.11 533.5,420.5C 534.795,421.098 536.128,421.598 537.5,422C 545.079,422.184 552.579,422.684 560,423.5C 572.311,422.535 584.645,422.535 597,423.5C 600.466,420.932 603.966,420.932 607.5,423.5C 612.362,422.587 617.362,422.587 622.5,423.5C 627.847,421.943 633.347,421.276 639,421.5C 644.962,421.303 650.795,421.97 656.5,423.5C 682.069,422.546 708.402,422.546 735.5,423.5C 737.993,427.842 741.66,430.342 746.5,431C 747.878,432.713 749.545,434.047 751.5,435C 756.443,441.037 761.276,447.204 766,453.5C 770.074,458.079 774.574,462.079 779.5,465.5 Z"/></g>
<g><path style="opacity:1" fill="#376d92" d="M 381.5,425.5 C 381.5,424.5 381.5,423.5 381.5,422.5C 382.5,422.5 383.5,422.5 384.5,422.5C 384.879,425.567 383.879,426.567 381.5,425.5 Z"/></g>
<g><path style="opacity:1" fill="#1c5e85" d="M 378.5,426.5 C 380.256,427.552 380.923,429.219 380.5,431.5C 378.952,435.598 377.119,439.598 375,443.5C 374.818,446.226 374.318,448.893 373.5,451.5C 372.833,451.833 372.167,452.167 371.5,452.5C 370.345,449.554 370.179,446.554 371,443.5C 372.852,437.406 375.352,431.74 378.5,426.5 Z"/></g>
<g><path style="opacity:1" fill="#8aa7c4" d="M 378.5,426.5 C 379.209,425.596 380.209,425.263 381.5,425.5C 381.795,427.735 381.461,429.735 380.5,431.5C 380.923,429.219 380.256,427.552 378.5,426.5 Z"/></g>
<g><path style="opacity:1" fill="#29658c" d="M 364.5,456.5 C 368.5,455.833 370.167,457.5 369.5,461.5C 367.5,461.5 365.5,461.5 363.5,461.5C 363.366,459.708 363.699,458.042 364.5,456.5 Z"/></g>
<g><path style="opacity:0.889" fill="#00557e" d="M 644.5,562.5 C 645.5,562.5 646.5,562.5 647.5,562.5C 647.333,588.835 647.5,615.169 648,641.5C 649.846,644.007 652.346,645.341 655.5,645.5C 655.5,646.5 655.5,647.5 655.5,648.5C 649.5,649.5 643.5,650.5 637.5,651.5C 637.663,649.143 637.497,646.81 637,644.5C 630.84,651.966 623.34,653.466 614.5,649C 609.14,644.781 605.973,639.281 605,632.5C 604.333,624.833 604.333,617.167 605,609.5C 607.886,594.482 616.719,588.649 631.5,592C 633.667,593.5 635.5,595.333 637,597.5C 637.667,589.5 637.667,581.5 637,573.5C 635.317,570.733 632.817,569.066 629.5,568.5C 628.614,567.675 628.281,566.675 628.5,565.5C 634.037,564.913 639.37,563.913 644.5,562.5 Z M 623.5,596.5 C 631.013,596.844 635.18,600.844 636,608.5C 638.184,618.254 637.851,627.921 635,637.5C 633.011,643.851 628.844,646.351 622.5,645C 620.622,643.457 619.122,641.624 618,639.5C 613.333,627.5 613.333,615.5 618,603.5C 618.967,600.379 620.8,598.046 623.5,596.5 Z"/></g>
<g><path style="opacity:0.866" fill="#00557e" d="M 777.5,562.5 C 778.5,562.5 779.5,562.5 780.5,562.5C 780.333,589.169 780.5,615.835 781,642.5C 782.312,645.581 784.645,647.248 788,647.5C 788.483,648.448 788.649,649.448 788.5,650.5C 779.833,650.5 771.167,650.5 762.5,650.5C 762.281,649.325 762.614,648.325 763.5,647.5C 766.188,646.995 768.355,645.662 770,643.5C 770.667,619.833 770.667,596.167 770,572.5C 768.355,570.338 766.188,569.005 763.5,568.5C 762.614,567.675 762.281,566.675 762.5,565.5C 767.727,565.022 772.727,564.022 777.5,562.5 Z"/></g>
<g><path style="opacity:0.885" fill="#00557e" d="M 232.5,565.5 C 242.574,565.451 245.241,569.951 240.5,579C 231.233,581.729 227.733,578.229 230,568.5C 231.045,567.627 231.878,566.627 232.5,565.5 Z"/></g>
<g><path style="opacity:0.87" fill="#00557e" d="M 438.5,565.5 C 444.992,563.723 448.659,566.056 449.5,572.5C 447.736,580.47 443.57,582.137 437,577.5C 434.964,573.182 435.464,569.182 438.5,565.5 Z"/></g>
<g><path style="opacity:0.874" fill="#00557e" d="M 664.5,565.5 C 667.579,565.26 670.579,565.593 673.5,566.5C 677.375,575.491 676.041,583.825 669.5,591.5C 667.579,592.641 665.579,592.808 663.5,592C 666.702,588.433 668.368,584.266 668.5,579.5C 662.608,578.736 660.441,575.402 662,569.5C 662.662,568.016 663.496,566.683 664.5,565.5 Z"/></g>
<g><path style="opacity:0.879" fill="#00557e" d="M 713.5,565.5 C 716.119,565.232 718.619,565.565 721,566.5C 729.198,590.092 737.198,613.759 745,637.5C 746.979,642.989 750.812,645.989 756.5,646.5C 756.5,647.833 756.5,649.167 756.5,650.5C 746.5,650.5 736.5,650.5 726.5,650.5C 726.5,649.167 726.5,647.833 726.5,646.5C 730.651,647.267 733.317,645.767 734.5,642C 732.869,636.108 731.036,630.275 729,624.5C 724.586,623.199 719.919,622.532 715,622.5C 710.081,622.532 705.414,623.199 701,624.5C 698.863,630.41 697.03,636.41 695.5,642.5C 695.529,644.029 696.196,645.196 697.5,646C 699.473,646.495 701.473,646.662 703.5,646.5C 703.5,647.833 703.5,649.167 703.5,650.5C 694.833,650.5 686.167,650.5 677.5,650.5C 677.5,649.167 677.5,647.833 677.5,646.5C 683.772,646.738 687.605,643.738 689,637.5C 696.88,613.36 705.046,589.36 713.5,565.5 Z M 714.5,581.5 C 718.563,592.884 722.563,604.384 726.5,616C 718.812,616.831 711.145,616.665 703.5,615.5C 707.574,604.277 711.241,592.944 714.5,581.5 Z"/></g>
<g><path style="opacity:0.906" fill="#00557e" d="M 93.5,566.5 C 103.5,566.5 113.5,566.5 123.5,566.5C 123.719,567.675 123.386,568.675 122.5,569.5C 120.111,570.18 117.778,571.014 115.5,572C 114.809,573.067 114.309,574.234 114,575.5C 113.333,592.833 113.333,610.167 114,627.5C 117.806,645.993 127.806,650.327 144,640.5C 146.549,636.185 147.882,631.519 148,626.5C 148.667,609.833 148.667,593.167 148,576.5C 147.071,571.942 144.238,569.608 139.5,569.5C 138.614,568.675 138.281,567.675 138.5,566.5C 147.5,566.5 156.5,566.5 165.5,566.5C 165.719,567.675 165.386,568.675 164.5,569.5C 162.111,570.18 159.778,571.014 157.5,572C 156.809,573.067 156.309,574.234 156,575.5C 155.667,594.167 155.333,612.833 155,631.5C 152.862,646.127 144.362,652.794 129.5,651.5C 113.331,652.159 104.498,644.492 103,628.5C 102.667,610.5 102.333,592.5 102,574.5C 100.56,571.334 98.06,569.667 94.5,569.5C 93.6143,568.675 93.281,567.675 93.5,566.5 Z"/></g>
<g><path style="opacity:0.857" fill="#00557e" d="M 471.5,573.5 C 472.833,573.5 474.167,573.5 475.5,573.5C 475.5,579.5 475.5,585.5 475.5,591.5C 480.167,591.5 484.833,591.5 489.5,591.5C 489.5,593.5 489.5,595.5 489.5,597.5C 484.833,597.5 480.167,597.5 475.5,597.5C 475.333,612.17 475.5,626.837 476,641.5C 476.935,644.102 478.768,645.602 481.5,646C 484.192,646.43 486.859,646.263 489.5,645.5C 489.739,647.467 489.406,649.301 488.5,651C 481.159,652.325 474.325,651.159 468,647.5C 467.027,645.608 466.36,643.608 466,641.5C 465.5,626.837 465.333,612.17 465.5,597.5C 462.5,597.5 459.5,597.5 456.5,597.5C 456.5,595.5 456.5,593.5 456.5,591.5C 467.164,590.486 472.164,584.486 471.5,573.5 Z"/></g>
<g><path style="opacity:0.907" fill="#00557e" d="M 553.5,573.5 C 554.833,573.5 556.167,573.5 557.5,573.5C 557.5,579.5 557.5,585.5 557.5,591.5C 562.5,591.5 567.5,591.5 572.5,591.5C 572.5,593.5 572.5,595.5 572.5,597.5C 567.5,597.5 562.5,597.5 557.5,597.5C 557.066,612.558 557.566,627.558 559,642.5C 562.771,646.547 567.271,647.547 572.5,645.5C 573.272,650.894 570.938,652.894 565.5,651.5C 559.575,651.892 554.408,650.225 550,646.5C 548.56,630.224 548.06,613.89 548.5,597.5C 545.5,597.5 542.5,597.5 539.5,597.5C 539.5,595.5 539.5,593.5 539.5,591.5C 550.322,590.591 554.989,584.591 553.5,573.5 Z"/></g>
<g><path style="opacity:0.849" fill="#00557e" d="M 1007.5,573.5 C 1008.83,573.5 1010.17,573.5 1011.5,573.5C 1011.5,579.5 1011.5,585.5 1011.5,591.5C 1016.17,591.5 1020.83,591.5 1025.5,591.5C 1025.5,593.5 1025.5,595.5 1025.5,597.5C 1020.83,597.5 1016.17,597.5 1011.5,597.5C 1011.33,612.17 1011.5,626.837 1012,641.5C 1012.93,644.102 1014.77,645.602 1017.5,646C 1020.19,646.43 1022.86,646.263 1025.5,645.5C 1025.74,647.467 1025.41,649.301 1024.5,651C 1017.2,652.326 1010.36,651.159 1004,647.5C 1002.96,645.285 1002.29,642.952 1002,640.5C 1001.5,626.171 1001.33,611.837 1001.5,597.5C 998.5,597.5 995.5,597.5 992.5,597.5C 992.5,595.5 992.5,593.5 992.5,591.5C 999.288,591.872 1003.79,588.872 1006,582.5C 1006.95,579.568 1007.45,576.568 1007.5,573.5 Z"/></g>
<g><path style="opacity:0.887" fill="#00557e" d="M 177.5,590.5 C 179.28,594.727 180.114,599.394 180,604.5C 185.831,590.781 195.165,587.447 208,594.5C 209.044,596.715 209.71,599.048 210,601.5C 210.333,615.167 210.667,628.833 211,642.5C 212.312,645.581 214.645,647.248 218,647.5C 218.483,648.448 218.649,649.448 218.5,650.5C 209.833,650.5 201.167,650.5 192.5,650.5C 192.281,649.325 192.614,648.325 193.5,647.5C 196.188,646.995 198.355,645.662 200,643.5C 200.667,629.5 200.667,615.5 200,601.5C 197.469,597.798 194.302,596.965 190.5,599C 184.182,605.139 180.682,612.639 180,621.5C 178.981,629.308 179.481,636.975 181.5,644.5C 183.289,645.877 185.289,646.877 187.5,647.5C 188.386,648.325 188.719,649.325 188.5,650.5C 179.5,650.5 170.5,650.5 161.5,650.5C 161.281,649.325 161.614,648.325 162.5,647.5C 166.66,647.502 169.16,645.502 170,641.5C 170.667,628.5 170.667,615.5 170,602.5C 168.851,598.987 166.351,596.987 162.5,596.5C 161.614,595.675 161.281,594.675 161.5,593.5C 167.049,592.989 172.383,591.989 177.5,590.5 Z"/></g>
<g><path style="opacity:0.872" fill="#00557e" d="M 238.5,590.5 C 239.5,590.5 240.5,590.5 241.5,590.5C 241.333,607.837 241.5,625.17 242,642.5C 243.312,645.581 245.645,647.248 249,647.5C 249.483,648.448 249.649,649.448 249.5,650.5C 240.833,650.5 232.167,650.5 223.5,650.5C 223.433,647.234 225.099,645.734 228.5,646C 229.701,645.097 230.535,643.931 231,642.5C 231.667,628.5 231.667,614.5 231,600.5C 229.442,598.232 227.276,597.066 224.5,597C 223.663,595.989 223.33,594.822 223.5,593.5C 228.696,592.861 233.696,591.861 238.5,590.5 Z"/></g>
<g><path style="opacity:0.881" fill="#00557e" d="M 319.5,590.5 C 337.361,589.186 345.694,597.52 344.5,615.5C 333.833,615.5 323.167,615.5 312.5,615.5C 311.999,627.663 316.665,637.163 326.5,644C 331.463,645.71 336.463,645.876 341.5,644.5C 342.833,646.167 342.833,647.833 341.5,649.5C 315.89,655.892 302.557,645.892 301.5,619.5C 300.244,604.96 306.244,595.293 319.5,590.5 Z M 322.5,595.5 C 330.247,597.273 333.913,602.273 333.5,610.5C 326.5,610.5 319.5,610.5 312.5,610.5C 312.651,603.153 315.985,598.153 322.5,595.5 Z"/></g>
<g><path style="opacity:0.873" fill="#00557e" d="M 363.5,590.5 C 364.5,590.5 365.5,590.5 366.5,590.5C 366.335,593.85 366.502,597.183 367,600.5C 370.399,592.383 376.232,589.549 384.5,592C 386.478,594.497 386.978,597.331 386,600.5C 385.5,601.667 384.667,602.5 383.5,603C 379.814,603.456 376.48,602.789 373.5,601C 369.634,604.252 367.467,608.419 367,613.5C 366.333,623.167 366.333,632.833 367,642.5C 368.312,645.581 370.645,647.248 374,647.5C 374.483,648.448 374.649,649.448 374.5,650.5C 365.833,650.5 357.167,650.5 348.5,650.5C 348.281,649.325 348.614,648.325 349.5,647.5C 352.188,646.995 354.355,645.662 356,643.5C 356.667,629.167 356.667,614.833 356,600.5C 354.486,598.234 352.319,597.068 349.5,597C 348.663,595.989 348.33,594.822 348.5,593.5C 353.727,593.022 358.727,592.022 363.5,590.5 Z"/></g>
<g><path style="opacity:0.88" fill="#00557e" d="M 403.5,590.5 C 409.934,590.327 416.267,590.994 422.5,592.5C 422.5,597.167 422.5,601.833 422.5,606.5C 421.167,606.5 419.833,606.5 418.5,606.5C 416.962,597.736 411.962,594.569 403.5,597C 398.167,601.333 398.167,605.667 403.5,610C 410.551,613.72 417.051,618.22 423,623.5C 426.333,630.5 426.333,637.5 423,644.5C 419.468,647.85 415.301,650.016 410.5,651C 403.403,651.749 396.403,651.249 389.5,649.5C 389.5,644.5 389.5,639.5 389.5,634.5C 390.833,634.5 392.167,634.5 393.5,634.5C 395.448,644.137 401.115,647.637 410.5,645C 415.609,641.634 416.776,637.134 414,631.5C 407,626.5 400,621.5 393,616.5C 386.86,603.794 390.36,595.127 403.5,590.5 Z"/></g>
<g><path style="opacity:0.907" fill="#00557e" d="M 444.5,590.5 C 445.5,590.5 446.5,590.5 447.5,590.5C 447.333,607.503 447.5,624.503 448,641.5C 448.84,645.502 451.34,647.502 455.5,647.5C 456.386,648.325 456.719,649.325 456.5,650.5C 447.5,650.5 438.5,650.5 429.5,650.5C 429.281,649.325 429.614,648.325 430.5,647.5C 433.23,646.99 435.397,645.656 437,643.5C 439,628.833 439,614.167 437,599.5C 434.978,598.214 432.811,597.214 430.5,596.5C 429.614,595.675 429.281,594.675 429.5,593.5C 434.727,593.022 439.727,592.022 444.5,590.5 Z"/></g>
<g><path style="opacity:0.884" fill="#00557e" d="M 509.5,590.5 C 523.776,588.291 531.276,594.291 532,608.5C 532.333,620.833 532.667,633.167 533,645.5C 534.671,647.276 536.504,647.61 538.5,646.5C 539.429,647.689 539.762,649.022 539.5,650.5C 535.537,651.44 531.537,651.607 527.5,651C 524.619,649.749 522.786,647.583 522,644.5C 513.792,652.823 505.125,653.489 496,646.5C 492.667,639.833 492.667,633.167 496,626.5C 497.938,623.894 500.438,622.061 503.5,621C 509.69,619.044 516.023,617.878 522.5,617.5C 522.691,612.101 522.191,606.767 521,601.5C 518.21,596.236 514.043,594.736 508.5,597C 507.281,601.163 505.614,605.163 503.5,609C 496.333,610.5 493.5,607.667 495,600.5C 495.667,599.167 496.333,597.833 497,596.5C 500.842,593.62 505.009,591.62 509.5,590.5 Z M 517.5,622.5 C 519.167,622.5 520.833,622.5 522.5,622.5C 523.855,630.934 521.522,638.101 515.5,644C 510.328,646.499 506.828,644.999 505,639.5C 503.227,629.442 507.394,623.775 517.5,622.5 Z"/></g>
<g><path style="opacity:0.901" fill="#00557e" d="M 807.5,590.5 C 814.948,589.65 821.448,591.65 827,596.5C 827.862,598.087 828.529,599.754 829,601.5C 829.333,615.167 829.667,628.833 830,642.5C 830.793,646.306 832.959,647.639 836.5,646.5C 837.429,647.689 837.762,649.022 837.5,650.5C 833.537,651.44 829.537,651.607 825.5,651C 822.337,649.52 820.504,647.02 820,643.5C 815.18,650.11 808.68,652.61 800.5,651C 793.606,648.602 790.606,643.769 791.5,636.5C 790.958,628.868 794.292,623.702 801.5,621C 807.69,619.044 814.023,617.878 820.5,617.5C 820.595,612.113 820.095,606.78 819,601.5C 816.167,596.223 812,594.723 806.5,597C 805.144,601.102 803.477,605.102 801.5,609C 792.72,609.644 790.22,605.811 794,597.5C 797.96,593.938 802.46,591.605 807.5,590.5 Z M 815.5,622.5 C 817.167,622.5 818.833,622.5 820.5,622.5C 821.62,630.875 819.286,638.042 813.5,644C 810.498,646.122 807.664,645.955 805,643.5C 799.372,632.089 802.872,625.089 815.5,622.5 Z"/></g>
<g><path style="opacity:0.89" fill="#00557e" d="M 858.5,590.5 C 865.196,589.849 871.529,591.015 877.5,594C 881.203,597.396 882.369,601.563 881,606.5C 877.798,610.386 874.465,610.386 871,606.5C 869.628,596.498 864.461,593.665 855.5,598C 851.285,603.006 849.285,608.839 849.5,615.5C 849.277,629.235 855.277,639.068 867.5,645C 871.558,645.767 875.558,645.6 879.5,644.5C 880.893,646.674 880.56,648.507 878.5,650C 868.769,652.611 859.435,651.611 850.5,647C 844.458,642.288 840.958,636.121 840,628.5C 838.429,618.385 839.762,608.718 844,599.5C 847.752,594.551 852.585,591.551 858.5,590.5 Z"/></g>
<g><path style="opacity:0.9" fill="#00557e" d="M 903.5,590.5 C 910.948,589.65 917.448,591.65 923,596.5C 923.862,598.087 924.529,599.754 925,601.5C 925.333,615.167 925.667,628.833 926,642.5C 926.793,646.306 928.959,647.639 932.5,646.5C 933.429,647.689 933.762,649.022 933.5,650.5C 929.537,651.44 925.537,651.607 921.5,651C 918.337,649.52 916.504,647.02 916,643.5C 911.18,650.11 904.68,652.61 896.5,651C 890.078,648.329 887.078,643.496 887.5,636.5C 886.958,628.868 890.292,623.702 897.5,621C 903.69,619.044 910.023,617.878 916.5,617.5C 916.595,612.113 916.095,606.78 915,601.5C 912.167,596.223 908,594.723 902.5,597C 901.281,601.163 899.614,605.163 897.5,609C 888.732,609.671 886.232,605.838 890,597.5C 893.96,593.938 898.46,591.605 903.5,590.5 Z M 911.5,622.5 C 913.167,622.5 914.833,622.5 916.5,622.5C 917.62,630.875 915.286,638.042 909.5,644C 906.498,646.122 903.664,645.955 901,643.5C 895.365,632.102 898.865,625.102 911.5,622.5 Z"/></g>
<g><path style="opacity:0.871" fill="#00557e" d="M 953.5,590.5 C 954.5,590.5 955.5,590.5 956.5,590.5C 956.334,594.846 956.501,599.179 957,603.5C 961.79,592.522 969.956,588.689 981.5,592C 985.469,595.561 987.302,600.061 987,605.5C 987.333,618.167 987.667,630.833 988,643.5C 989.645,645.662 991.812,646.995 994.5,647.5C 995.386,648.325 995.719,649.325 995.5,650.5C 986.833,650.5 978.167,650.5 969.5,650.5C 969.433,647.234 971.099,645.734 974.5,646C 975.701,645.097 976.535,643.931 977,642.5C 977.667,629.167 977.667,615.833 977,602.5C 975.915,599.75 973.915,598.083 971,597.5C 962.823,602.035 958.157,609.035 957,618.5C 956.333,626.5 956.333,634.5 957,642.5C 958.312,645.581 960.645,647.248 964,647.5C 964.483,648.448 964.649,649.448 964.5,650.5C 955.833,650.5 947.167,650.5 938.5,650.5C 938.281,649.325 938.614,648.325 939.5,647.5C 942.188,646.995 944.355,645.662 946,643.5C 946.667,629.167 946.667,614.833 946,600.5C 944.486,598.234 942.319,597.068 939.5,597C 938.663,595.989 938.33,594.822 938.5,593.5C 943.727,593.022 948.727,592.022 953.5,590.5 Z"/></g>
<g><path style="opacity:0.865" fill="#00557e" d="M 245.5,591.5 C 253.833,591.5 262.167,591.5 270.5,591.5C 270.5,592.833 270.5,594.167 270.5,595.5C 267.739,594.915 266.073,595.915 265.5,598.5C 269.506,611.019 274.006,623.353 279,635.5C 283.138,623.586 286.971,611.586 290.5,599.5C 290.597,596.089 288.93,594.755 285.5,595.5C 285.5,594.167 285.5,592.833 285.5,591.5C 292.5,591.5 299.5,591.5 306.5,591.5C 306.5,592.833 306.5,594.167 306.5,595.5C 304.064,595.317 301.897,595.984 300,597.5C 293.076,614.603 286.743,631.937 281,649.5C 279.23,651.418 277.063,651.918 274.5,651C 267.671,633.85 260.838,616.684 254,599.5C 251.859,596.679 249.025,595.346 245.5,595.5C 245.5,594.167 245.5,592.833 245.5,591.5 Z"/></g>
<g><path style="opacity:0.882" fill="#00557e" d="M 438.5,707.5 C 440.326,733.481 441.16,759.814 441,786.5C 442.846,789.007 445.346,790.341 448.5,790.5C 448.5,791.5 448.5,792.5 448.5,793.5C 442.539,794.716 436.539,795.716 430.5,796.5C 430.662,794.473 430.495,792.473 430,790.5C 420.081,798.955 410.748,798.289 402,788.5C 399.867,784.768 398.534,780.768 398,776.5C 396.101,764.576 397.768,753.243 403,742.5C 409.025,736.202 416.191,734.369 424.5,737C 427,738.167 428.833,740 430,742.5C 430.667,734.5 430.667,726.5 430,718.5C 428.414,715.866 426.08,714.199 423,713.5C 422.517,712.552 422.351,711.552 422.5,710.5C 428.037,709.913 433.37,708.913 438.5,707.5 Z M 417.5,741.5 C 424.026,742.19 427.86,745.857 429,752.5C 431.42,763.698 430.753,774.698 427,785.5C 424.459,790.069 420.625,791.569 415.5,790C 411.634,786.748 409.467,782.581 409,777.5C 407.885,767.679 408.552,758.012 411,748.5C 412.694,745.642 414.861,743.309 417.5,741.5 Z"/></g>
<g><path style="opacity:0.919" fill="#00557e" d="M 544.5,707.5 C 546.326,732.48 547.16,757.814 547,783.5C 547.533,788.527 550.366,790.86 555.5,790.5C 555.5,791.5 555.5,792.5 555.5,793.5C 549.501,794.5 543.501,795.5 537.5,796.5C 537.663,794.143 537.497,791.81 537,789.5C 529.393,797.863 520.893,798.696 511.5,792C 502.978,777.975 501.478,763.141 507,747.5C 512.668,736.628 521.168,733.461 532.5,738C 534.378,739.543 535.878,741.376 537,743.5C 537.667,735.5 537.667,727.5 537,719.5C 536.691,718.234 536.191,717.067 535.5,716C 533.341,715.088 531.175,714.255 529,713.5C 528.517,712.552 528.351,711.552 528.5,710.5C 534.076,710.129 539.409,709.129 544.5,707.5 Z M 523.5,741.5 C 531.004,741.834 535.171,745.834 536,753.5C 538.16,763.251 537.826,772.918 535,782.5C 532.466,790.482 527.633,792.482 520.5,788.5C 512.686,773.979 512.519,759.312 520,744.5C 521.145,743.364 522.312,742.364 523.5,741.5 Z"/></g>
<g><path style="opacity:0.883" fill="#00557e" d="M 631.5,707.5 C 633.326,733.481 634.16,759.814 634,786.5C 635.654,789.232 638.154,790.565 641.5,790.5C 641.5,791.5 641.5,792.5 641.5,793.5C 635.539,794.716 629.539,795.716 623.5,796.5C 623.663,794.143 623.497,791.81 623,789.5C 618.748,795.588 612.915,797.754 605.5,796C 596.973,792.799 592.14,786.632 591,777.5C 590.333,770.167 590.333,762.833 591,755.5C 593.334,739.814 602.167,733.647 617.5,737C 619.667,738.5 621.5,740.333 623,742.5C 623.667,734.5 623.667,726.5 623,718.5C 621.414,715.866 619.08,714.199 616,713.5C 615.517,712.552 615.351,711.552 615.5,710.5C 621.037,709.913 626.37,708.913 631.5,707.5 Z M 610.5,741.5 C 617.48,742.316 621.313,746.316 622,753.5C 624.404,764.367 623.737,775.034 620,785.5C 617.459,790.069 613.625,791.569 608.5,790C 604.634,786.748 602.467,782.581 602,777.5C 600.885,767.679 601.552,758.012 604,748.5C 605.694,745.642 607.861,743.309 610.5,741.5 Z"/></g>
<g><path style="opacity:0.892" fill="#00557e" d="M 810.5,707.5 C 812.327,733.815 813.16,760.481 813,787.5C 814.141,790.472 816.308,792.139 819.5,792.5C 820.386,793.325 820.719,794.325 820.5,795.5C 802.5,795.5 784.5,795.5 766.5,795.5C 766.5,794.167 766.5,792.833 766.5,791.5C 770.271,792.226 772.937,790.893 774.5,787.5C 772.293,780.88 770.293,774.213 768.5,767.5C 759.494,767.334 750.494,767.5 741.5,768C 737.825,775.16 736.158,782.66 736.5,790.5C 738.409,791.348 740.409,791.682 742.5,791.5C 742.5,792.833 742.5,794.167 742.5,795.5C 733.833,795.5 725.167,795.5 716.5,795.5C 716.5,794.167 716.5,792.833 716.5,791.5C 722.031,791.823 725.864,789.49 728,784.5C 736.468,759.906 744.634,735.239 752.5,710.5C 755.247,710.187 757.914,710.52 760.5,711.5C 768.963,735.388 777.13,759.388 785,783.5C 788.869,791.925 794.535,793.592 802,788.5C 802.667,764.833 802.667,741.167 802,717.5C 800.442,715.232 798.276,714.066 795.5,714C 794.663,712.989 794.33,711.822 794.5,710.5C 800.037,709.913 805.37,708.913 810.5,707.5 Z M 754.5,727.5 C 758.537,738.614 762.204,749.948 765.5,761.5C 758.167,761.5 750.833,761.5 743.5,761.5C 746.769,750.028 750.435,738.694 754.5,727.5 Z"/></g>
<g><path style="opacity:0.868" fill="#00557e" d="M 169.5,710.5 C 177.275,709.442 180.442,712.775 179,720.5C 174.667,727.167 170.333,727.167 166,720.5C 165.115,716.314 166.282,712.981 169.5,710.5 Z"/></g>
<g><path style="opacity:0.868" fill="#00557e" d="M 376.5,710.5 C 384.275,709.442 387.442,712.775 386,720.5C 381.667,727.167 377.333,727.167 373,720.5C 372.115,716.314 373.282,712.981 376.5,710.5 Z"/></g>
<g><path style="opacity:0.887" fill="#00557e" d="M 833.5,710.5 C 839.767,709.275 843.433,711.775 844.5,718C 842.681,725.159 838.514,726.993 832,723.5C 829.743,718.805 830.243,714.472 833.5,710.5 Z"/></g>
<g><path style="opacity:0.904" fill="#00557e" d="M 29.5,711.5 C 39.5,711.5 49.5,711.5 59.5,711.5C 59.5,712.833 59.5,714.167 59.5,715.5C 53.9154,714.588 50.7487,716.921 50,722.5C 49.3333,738.5 49.3333,754.5 50,770.5C 51.4414,788.621 60.608,794.454 77.5,788C 81.4308,783.971 83.5974,779.137 84,773.5C 84.6667,755.833 84.6667,738.167 84,720.5C 82.4363,716.131 79.2697,714.465 74.5,715.5C 74.5,714.167 74.5,712.833 74.5,711.5C 83.5,711.5 92.5,711.5 101.5,711.5C 101.5,712.833 101.5,714.167 101.5,715.5C 96.2542,714.366 93.0876,716.366 92,721.5C 91.6667,740.167 91.3333,758.833 91,777.5C 88.5681,791.236 80.2347,797.57 66,796.5C 47.6685,796.835 38.6685,787.835 39,769.5C 38.6667,752.5 38.3333,735.5 38,718.5C 35.8038,715.875 32.9705,714.875 29.5,715.5C 29.5,714.167 29.5,712.833 29.5,711.5 Z"/></g>
<g><path style="opacity:0.922" fill="#00557e" d="M 1023.5,718.5 C 1024.83,718.5 1026.17,718.5 1027.5,718.5C 1027.5,724.833 1027.5,731.167 1027.5,737.5C 1032.5,737.5 1037.5,737.5 1042.5,737.5C 1042.5,739.167 1042.5,740.833 1042.5,742.5C 1037.5,742.5 1032.5,742.5 1027.5,742.5C 1027.33,756.504 1027.5,770.504 1028,784.5C 1030.39,790.943 1034.89,792.943 1041.5,790.5C 1042.47,792.396 1042.8,794.396 1042.5,796.5C 1035.63,797.035 1028.96,796.201 1022.5,794C 1021.67,793.167 1020.83,792.333 1020,791.5C 1018.54,775.237 1018.04,758.904 1018.5,742.5C 1015.5,742.5 1012.5,742.5 1009.5,742.5C 1009.26,740.533 1009.59,738.699 1010.5,737C 1020.57,735.061 1024.9,728.894 1023.5,718.5 Z"/></g>
<g><path style="opacity:0.897" fill="#00557e" d="M 113.5,735.5 C 114.5,735.5 115.5,735.5 116.5,735.5C 116.334,739.846 116.501,744.179 117,748.5C 122.812,735.635 131.812,732.635 144,739.5C 144.862,741.087 145.529,742.754 146,744.5C 146.333,758.5 146.667,772.5 147,786.5C 148.156,790.737 150.99,792.737 155.5,792.5C 155.5,793.5 155.5,794.5 155.5,795.5C 146.5,795.5 137.5,795.5 128.5,795.5C 128.5,794.5 128.5,793.5 128.5,792.5C 133.634,792.86 136.467,790.527 137,785.5C 137.667,773.833 137.667,762.167 137,750.5C 135.757,743.09 131.924,741.257 125.5,745C 118.272,753.688 115.272,763.688 116.5,775C 116.667,779.5 116.833,784 117,788.5C 118.645,790.662 120.812,791.995 123.5,792.5C 124.386,793.325 124.719,794.325 124.5,795.5C 115.833,795.5 107.167,795.5 98.5,795.5C 98.8087,792.654 100.475,791.154 103.5,791C 104.701,790.097 105.535,788.931 106,787.5C 106.667,773.833 106.667,760.167 106,746.5C 104.682,743.059 102.182,741.725 98.5,742.5C 98.5,741.167 98.5,739.833 98.5,738.5C 103.727,738.022 108.727,737.022 113.5,735.5 Z"/></g>
<g><path style="opacity:0.917" fill="#00557e" d="M 175.5,735.5 C 177.322,752.137 178.156,769.137 178,786.5C 179.156,790.737 181.99,792.737 186.5,792.5C 186.5,793.5 186.5,794.5 186.5,795.5C 177.5,795.5 168.5,795.5 159.5,795.5C 159.5,794.5 159.5,793.5 159.5,792.5C 162.846,792.565 165.346,791.232 167,788.5C 168.591,775.223 168.924,761.89 168,748.5C 167.174,744.084 164.507,741.751 160,741.5C 159.517,740.552 159.351,739.552 159.5,738.5C 165.049,737.989 170.383,736.989 175.5,735.5 Z"/></g>
<g><path style="opacity:0.884" fill="#00557e" d="M 257.5,735.5 C 274.51,735.178 282.176,743.511 280.5,760.5C 269.833,760.5 259.167,760.5 248.5,760.5C 248.533,772.398 253.199,781.898 262.5,789C 267.797,790.72 273.13,790.886 278.5,789.5C 280.149,793.982 278.482,796.149 273.5,796C 249.703,799.038 238.036,788.538 238.5,764.5C 238.007,755.776 240.341,747.943 245.5,741C 249.227,738.299 253.227,736.465 257.5,735.5 Z M 256.5,741.5 C 265.547,740.874 270.214,745.208 270.5,754.5C 263.167,755.833 255.833,755.833 248.5,754.5C 249.427,748.957 252.094,744.624 256.5,741.5 Z"/></g>
<g><path style="opacity:0.879" fill="#00557e" d="M 301.5,735.5 C 303.25,738.355 304.083,741.689 304,745.5C 306.781,738.363 311.948,735.196 319.5,736C 323.124,738.161 324.291,741.328 323,745.5C 319.198,749.301 315.198,749.301 311,745.5C 307.42,748.316 305.087,751.983 304,756.5C 303.333,767.167 303.333,777.833 304,788.5C 305.645,790.662 307.812,791.995 310.5,792.5C 311.386,793.325 311.719,794.325 311.5,795.5C 302.833,795.5 294.167,795.5 285.5,795.5C 285.809,792.654 287.475,791.154 290.5,791C 291.701,790.097 292.535,788.931 293,787.5C 293.667,773.833 293.667,760.167 293,746.5C 291.682,743.059 289.182,741.725 285.5,742.5C 285.5,741.167 285.5,739.833 285.5,738.5C 291.037,737.913 296.37,736.913 301.5,735.5 Z"/></g>
<g><path style="opacity:0.876" fill="#00557e" d="M 341.5,735.5 C 347.581,735.514 353.581,736.181 359.5,737.5C 359.5,742.5 359.5,747.5 359.5,752.5C 358.178,752.67 357.011,752.337 356,751.5C 354.23,742.863 349.064,739.696 340.5,742C 335.132,746.896 335.466,751.563 341.5,756C 349.058,759.517 355.558,764.35 361,770.5C 365.715,784.082 361.215,792.582 347.5,796C 341.109,796.758 334.776,796.424 328.5,795C 326.586,790.142 325.919,784.975 326.5,779.5C 327.552,779.351 328.552,779.517 329.5,780C 331.914,788.102 337.247,791.768 345.5,791C 352.851,787.566 354.351,782.399 350,775.5C 344.923,771.376 339.423,767.876 333.5,765C 324.656,756.622 324.323,747.956 332.5,739C 335.459,737.396 338.459,736.229 341.5,735.5 Z"/></g>
<g><path style="opacity:0.917" fill="#00557e" d="M 382.5,735.5 C 384.322,752.137 385.156,769.137 385,786.5C 386.156,790.737 388.99,792.737 393.5,792.5C 393.5,793.5 393.5,794.5 393.5,795.5C 384.5,795.5 375.5,795.5 366.5,795.5C 366.5,794.5 366.5,793.5 366.5,792.5C 369.846,792.565 372.346,791.232 374,788.5C 375.591,775.223 375.924,761.89 375,748.5C 374.174,744.084 371.507,741.751 367,741.5C 366.517,740.552 366.351,739.552 366.5,738.5C 372.049,737.989 377.383,736.989 382.5,735.5 Z"/></g>
<g><path style="opacity:0.899" fill="#00557e" d="M 469.5,735.5 C 476.913,734.808 483.413,736.808 489,741.5C 489.862,743.087 490.529,744.754 491,746.5C 491.333,760.5 491.667,774.5 492,788.5C 493.076,792.106 495.243,793.106 498.5,791.5C 499.429,792.689 499.762,794.022 499.5,795.5C 495.537,796.44 491.537,796.607 487.5,796C 484.117,794.62 482.284,792.12 482,788.5C 476.175,796.105 468.675,798.272 459.5,795C 452.788,788.567 451.288,781.067 455,772.5C 457.264,769.567 460.098,767.4 463.5,766C 469.7,764.1 476.033,762.933 482.5,762.5C 482.55,757.448 482.05,752.448 481,747.5C 480.654,745.152 479.487,743.319 477.5,742C 474.5,741.333 471.5,741.333 468.5,742C 467.144,746.102 465.477,750.102 463.5,754C 461.167,754.667 458.833,754.667 456.5,754C 453.433,748.8 454.1,744.133 458.5,740C 462.157,738.178 465.824,736.678 469.5,735.5 Z M 478.5,767.5 C 479.833,767.5 481.167,767.5 482.5,767.5C 483.62,775.875 481.286,783.042 475.5,789C 467.988,791.191 463.988,788.191 463.5,780C 465.421,772.051 470.421,767.884 478.5,767.5 Z"/></g>
<g><path style="opacity:0.881" fill="#00557e" d="M 663.5,735.5 C 680.98,734.647 688.98,742.981 687.5,760.5C 676.833,760.5 666.167,760.5 655.5,760.5C 655.001,771.666 659.001,780.833 667.5,788C 673.614,790.759 679.947,791.259 686.5,789.5C 686.859,791.766 686.192,793.599 684.5,795C 658.674,800.993 645.674,790.827 645.5,764.5C 644.444,754.499 647.444,745.999 654.5,739C 657.571,737.704 660.571,736.538 663.5,735.5 Z M 662.5,741.5 C 672.454,740.68 677.12,745.347 676.5,755.5C 669.5,755.5 662.5,755.5 655.5,755.5C 655.714,749.739 658.047,745.073 662.5,741.5 Z"/></g>
<g><path style="opacity:0.881" fill="#00557e" d="M 840.5,735.5 C 842.322,752.471 843.156,769.804 843,787.5C 844.141,790.472 846.308,792.139 849.5,792.5C 850.386,793.325 850.719,794.325 850.5,795.5C 841.833,795.5 833.167,795.5 824.5,795.5C 824.809,792.654 826.475,791.154 829.5,791C 830.701,790.097 831.535,788.931 832,787.5C 832.667,773.5 832.667,759.5 832,745.5C 830.152,742.959 827.652,741.959 824.5,742.5C 824.5,741.167 824.5,739.833 824.5,738.5C 830.037,737.913 835.37,736.913 840.5,735.5 Z"/></g>
<g><path style="opacity:0.885" fill="#00557e" d="M 874.5,735.5 C 880.834,735.067 886.834,736.234 892.5,739C 896.259,742.743 897.426,747.243 896,752.5C 893.757,754.282 891.257,754.782 888.5,754C 886.312,749.938 883.979,745.938 881.5,742C 871.645,740.834 866.145,745.334 865,755.5C 862.881,771.199 868.714,782.699 882.5,790C 886.755,790.796 890.921,790.629 895,789.5C 895.743,791.441 895.576,793.274 894.5,795C 868.825,800.812 855.492,790.645 854.5,764.5C 853.508,749.211 860.175,739.545 874.5,735.5 Z"/></g>
<g><path style="opacity:0.874" fill="#00557e" d="M 919.5,735.5 C 931.767,733.597 938.934,738.597 941,750.5C 941.333,763.833 941.667,777.167 942,790.5C 943.845,792.35 945.845,792.683 948,791.5C 948.783,793.433 948.283,794.933 946.5,796C 943.167,796.667 939.833,796.667 936.5,796C 933.626,794.701 931.793,792.535 931,789.5C 924.315,796.854 916.482,798.354 907.5,794C 901.814,787.146 900.981,779.646 905,771.5C 908.917,767.291 913.75,764.791 919.5,764C 923.51,763.499 927.51,762.999 931.5,762.5C 932.09,755.883 931.09,749.55 928.5,743.5C 927.975,742.808 927.308,742.308 926.5,742C 917.868,739.297 914.034,742.463 915,751.5C 912.833,754.287 909.999,755.12 906.5,754C 902.414,748.2 903.414,743.2 909.5,739C 912.85,737.514 916.184,736.347 919.5,735.5 Z M 927.5,767.5 C 928.833,767.5 930.167,767.5 931.5,767.5C 932.642,775.095 930.975,781.928 926.5,788C 920.898,792.057 916.731,790.891 914,784.5C 912.924,779.928 913.757,775.761 916.5,772C 920.053,769.879 923.72,768.379 927.5,767.5 Z"/></g>
<g><path style="opacity:0.897" fill="#00557e" d="M 967.5,735.5 C 969.28,739.727 970.114,744.394 970,749.5C 974.374,737.73 982.541,733.563 994.5,737C 998.047,739.594 999.881,743.094 1000,747.5C 1000.33,760.833 1000.67,774.167 1001,787.5C 1002.14,790.472 1004.31,792.139 1007.5,792.5C 1008.39,793.325 1008.72,794.325 1008.5,795.5C 999.833,795.5 991.167,795.5 982.5,795.5C 982.809,792.654 984.475,791.154 987.5,791C 988.701,790.097 989.535,788.931 990,787.5C 990.667,774.167 990.667,760.833 990,747.5C 988.591,744.05 986.091,742.55 982.5,743C 975.396,748.364 971.229,755.53 970,764.5C 969.333,771.833 969.333,779.167 970,786.5C 971.156,790.737 973.99,792.737 978.5,792.5C 978.5,793.5 978.5,794.5 978.5,795.5C 969.5,795.5 960.5,795.5 951.5,795.5C 951.5,794.5 951.5,793.5 951.5,792.5C 954.846,792.565 957.346,791.232 959,788.5C 960.591,775.223 960.924,761.89 960,748.5C 959.174,744.084 956.507,741.751 952,741.5C 951.517,740.552 951.351,739.552 951.5,738.5C 957.049,737.989 962.383,736.989 967.5,735.5 Z"/></g>
<g><path style="opacity:0.878" fill="#00557e" d="M 1063.5,735.5 C 1080.99,734.657 1088.99,742.991 1087.5,760.5C 1076.83,760.5 1066.17,760.5 1055.5,760.5C 1055.34,771.54 1059.34,780.707 1067.5,788C 1073.64,790.695 1079.98,791.195 1086.5,789.5C 1086.86,791.766 1086.19,793.599 1084.5,795C 1058.69,801.017 1045.69,790.85 1045.5,764.5C 1044.56,755.072 1047.23,746.905 1053.5,740C 1056.7,737.997 1060.04,736.497 1063.5,735.5 Z M 1062.5,741.5 C 1072.76,740.428 1077.43,745.094 1076.5,755.5C 1069.5,755.5 1062.5,755.5 1055.5,755.5C 1055.94,749.822 1058.27,745.155 1062.5,741.5 Z"/></g>
<g><path style="opacity:0.898" fill="#00557e" d="M 182.5,737.5 C 190.5,737.5 198.5,737.5 206.5,737.5C 206.5,738.5 206.5,739.5 206.5,740.5C 204.319,740.284 202.653,741.117 201.5,743C 205.874,755.29 210.541,767.456 215.5,779.5C 219.994,767.851 223.994,756.017 227.5,744C 226.793,741.46 225.127,740.293 222.5,740.5C 222.5,739.5 222.5,738.5 222.5,737.5C 229.5,737.5 236.5,737.5 243.5,737.5C 243.5,738.5 243.5,739.5 243.5,740.5C 238.511,740.318 235.345,742.651 234,747.5C 228.192,763.757 222.692,780.091 217.5,796.5C 215.076,796.808 212.743,796.474 210.5,795.5C 204.277,778.722 197.777,762.055 191,745.5C 189.326,741.911 186.493,740.245 182.5,740.5C 182.5,739.5 182.5,738.5 182.5,737.5 Z"/></g>
</svg>
