<?xml version="1.0" encoding="UTF-8" standalone="no"?>
<!-- Created with Inkscape (http://www.inkscape.org/) -->

<svg
   version="1.1"
   id="svg2"
   width="150.82668"
   height="200.18668"
   viewBox="0 0 150.82668 200.18668"
   sodipodi:docname="Logo V2 Color Impresión Formato Vectorial (eps).eps"
   xmlns:inkscape="http://www.inkscape.org/namespaces/inkscape"
   xmlns:sodipodi="http://sodipodi.sourceforge.net/DTD/sodipodi-0.dtd"
   xmlns="http://www.w3.org/2000/svg"
   xmlns:svg="http://www.w3.org/2000/svg">
  <defs
     id="defs6">
    <clipPath
       clipPathUnits="userSpaceOnUse"
       id="clipPath18">
      <path
         d="M 0,1 V 1501 H 1130 V 1 Z"
         id="path16" />
    </clipPath>
  </defs>
  <sodipodi:namedview
     id="namedview4"
     pagecolor="#ffffff"
     bordercolor="#000000"
     borderopacity="0.25"
     inkscape:showpageshadow="2"
     inkscape:pageopacity="0.0"
     inkscape:pagecheckerboard="0"
     inkscape:deskcolor="#d1d1d1" />
  <g
     id="g8"
     inkscape:groupmode="layer"
     inkscape:label="ink_ext_XXXXXX"
     transform="matrix(1.3333333,0,0,-1.3333333,0,200.18667)">
    <g
       id="g10"
       transform="scale(0.1)">
      <g
         id="g12">
        <g
           id="g14"
           clip-path="url(#clipPath18)">
          <path
             d="m 123.633,724.73 h 35.691 V 528.645 c 0,-73.196 40.215,-98.954 114.309,-98.954 51.504,0 77.715,10.399 94.433,28.93 15.813,17.16 17.618,40.66 17.618,63.695 v 185.696 c 0,9.043 3.613,16.718 14.004,16.718 h 27.109 v 13.555 H 331.465 V 724.73 h 20.332 c 13.105,0 20.332,-7.675 20.332,-16.718 V 556.203 c 0,-37.051 0,-71.832 -10.391,-83.133 -9.492,-13.109 -29.367,-30.269 -65.058,-29.82 -51.055,0.449 -61.446,21.238 -61.446,62.809 V 724.73 h 37.95 v 13.555 H 123.633 V 724.73"
             style="fill:#cf6620;fill-opacity:1;fill-rule:evenodd;stroke:none"
             id="path20" />
          <path
             d="m 699.629,643.227 c -9.324,64.402 -61.445,98.3 -124.578,98.3 -93.227,0 -143.227,-71.609 -143.227,-159.316 0,-88.141 45.766,-157.641 139.836,-157.641 76.27,0 123.301,45.77 130.938,121.196 H 662.344 C 658.523,495.77 628.02,458.48 575.051,458.48 c -72.461,0 -102.973,57.618 -102.973,126.692 0,63.133 30.512,122.457 102.551,122.457 41.941,0 76.269,-21.609 84.746,-64.402 h 40.254"
             style="fill:#206489;fill-opacity:1;fill-rule:evenodd;stroke:none"
             id="path22" />
          <path
             d="m 729.063,431.781 h 41.523 l 33.906,91.102 h 127.969 l 33.047,-91.102 H 1010 L 891.777,734.328 h -44.492 z m 139.414,266.102 h 0.839 l 50.43,-141.102 H 817.207 l 51.27,141.102"
             style="fill:#206489;fill-opacity:1;fill-rule:evenodd;stroke:none"
             id="path24" />
          <path
             d="M 1131.19,348.012 H 0"
             style="fill:none;stroke:#cf6620;stroke-width:13.7723;stroke-linecap:butt;stroke-linejoin:miter;stroke-miterlimit:3.86369;stroke-dasharray:none;stroke-opacity:1"
             id="path26" />
          <path
             d="m 376.23,1501.4 233.965,-282.01 c 29.309,-36.42 46.797,-82.87 46.797,-133.47 0,-116.955 -93.879,-211.768 -209.679,-211.768 -74.754,0 -138.114,42.067 -177.489,98.973 L 145.051,1124.7 v 64.99 l 155.75,-194.295 1.308,-2.11 c 36.016,-41.945 84.239,-81.066 145.204,-81.066 94.425,0 171.613,77.414 171.613,173.701 0,41.44 -14.231,79.35 -37.988,109.11 L 376.23,1436.18 v 65.22"
             style="fill:#787f87;fill-opacity:1;fill-rule:evenodd;stroke:none"
             id="path28" />
          <path
             d="m 564.395,1157.15 c 12.031,-20.86 18.332,-45.65 18.332,-71.72 0,-76.94 -60.207,-139.313 -134.473,-139.313 -46.34,0 -87.199,24.278 -111.391,61.233 l -191.812,234.4 v 64.98 l 228.648,-279.69 c 20.481,-28.931 36.985,-33.72 72.856,-38.806 52.156,-7.394 95.386,44.466 95.386,99.326 0,17.78 -1.628,33.1 -9.48,47.54 L 376.23,1321.24 v 65.21 l 188.165,-229.3"
             style="fill:#787f87;fill-opacity:1;fill-rule:evenodd;stroke:none"
             id="path30" />
          <path
             d="m 499.512,1126.32 3.508,-24.27 -7.024,-35.99 c 0,0 -7.668,-36.72 -11.101,-38.63 -48.274,-26.63 -82.297,11.9 -82.297,11.9 7.363,-5.32 16.34,-8.44 26.015,-8.44 25.059,0 45.371,20.91 45.371,46.72 0,12.18 -4.511,23.17 -11.914,31.48 l -85.84,101.61 v 65.2 l 123.282,-149.58"
             style="fill:#787f87;fill-opacity:1;fill-rule:evenodd;stroke:none"
             id="path32" />
          <path
             d="m 239.895,894.375 -94.844,115.375 v 64.99 L 253.145,939.895 c 0,0 118.125,-174.442 325.378,-60.176 -32.625,-34.317 -93.777,-61.328 -161.914,-61.328 -80.425,0 -146.171,37.941 -176.714,75.984"
             style="fill:#787f87;fill-opacity:1;fill-rule:evenodd;stroke:none"
             id="path34" />
          <path
             d="M 754.961,1501.4 520.996,1219.39 c -29.308,-36.42 -46.797,-82.87 -46.797,-133.47 0,-116.955 93.875,-211.768 209.68,-211.768 74.754,0 138.113,42.067 177.488,98.973 L 986.145,1124.7 v 64.99 l -155.747,-194.295 -1.316,-2.11 c -36.016,-41.945 -84.238,-81.066 -145.203,-81.066 -94.426,0 -171.613,77.414 -171.613,173.701 0,41.44 14.226,79.35 37.988,109.11 l 204.707,241.15 v 65.22"
             style="fill:#787f87;fill-opacity:1;fill-rule:evenodd;stroke:none"
             id="path36" />
          <path
             d="m 566.797,1157.15 c -12.031,-20.86 -18.328,-45.65 -18.328,-71.72 0,-76.94 60.203,-139.313 134.48,-139.313 46.328,0 87.196,24.278 111.375,61.233 l 191.821,234.4 v 64.98 L 757.488,1027.04 c -20.476,-28.931 -36.98,-33.72 -72.847,-38.806 -52.161,-7.394 -95.383,44.466 -95.383,99.326 0,17.78 1.621,33.1 9.48,47.54 l 156.223,186.14 v 65.21 l -188.164,-229.3"
             style="fill:#787f87;fill-opacity:1;fill-rule:evenodd;stroke:none"
             id="path38" />
          <path
             d="m 631.688,1126.32 -3.504,-24.27 7.011,-35.99 c 0,0 7.664,-36.72 11.114,-38.63 48.261,-26.63 82.285,11.9 82.285,11.9 -7.364,-5.32 -16.336,-8.44 -26.016,-8.44 -25.058,0 -45.371,20.91 -45.371,46.72 0,12.18 4.512,23.17 11.926,31.48 l 85.828,101.61 v 65.2 L 631.688,1126.32"
             style="fill:#787f87;fill-opacity:1;fill-rule:evenodd;stroke:none"
             id="path40" />
          <path
             d="m 891.301,894.375 94.844,115.375 v 64.99 L 878.059,939.895 c 0,0 -118.137,-174.442 -325.383,-60.176 32.617,-34.317 93.769,-61.328 161.914,-61.328 80.43,0 146.164,37.941 176.711,75.984"
             style="fill:#787f87;fill-opacity:1;fill-rule:evenodd;stroke:none"
             id="path42" />
          <path
             d="M 323.066,116.23 H 309.551 V 73.9414 h -0.321 c -6.046,9.6992 -18.125,12.8789 -26.554,12.8789 -25.117,0 -37.52,-19.5586 -37.52,-42.7695 0,-23.2227 12.559,-43.250019 37.832,-43.250019 11.289,0 21.785,3.980469 26.242,13.039019 h 0.321 V 2.71094 h 13.515 z M 259.465,43.0898 c 0,16.0586 6.199,31.8086 24.637,31.8086 18.613,0 25.918,-14.957 25.918,-31.1679 0,-15.4219 -6.993,-31 -25.118,-31 -17.492,0 -25.437,14.9414 -25.437,30.3593"
             style="fill:#787f87;fill-opacity:1;fill-rule:evenodd;stroke:none"
             id="path44" />
          <path
             d="m 403.848,28.7813 c -2.383,-10.6407 -10.176,-16.0508 -21.309,-16.0508 -17.969,0 -26.074,12.7109 -25.598,27.0312 h 61.536 c 0.793,19.8672 -8.106,47.0586 -37.207,47.0586 -22.422,0 -38.633,-18.1289 -38.633,-42.7695 0.793,-25.1211 13.191,-43.250019 39.433,-43.250019 18.438,0 31.477,9.859419 35.137,27.980519 z m -46.907,22.8984 c 0.957,12.5586 9.387,23.2187 23.539,23.2187 13.348,0 23.055,-10.3476 23.68,-23.2187 h -47.219"
             style="fill:#787f87;fill-opacity:1;fill-rule:evenodd;stroke:none"
             id="path46" />
          <path
             d="m 580.188,82.0508 c -3.5,24.1602 -23.059,36.8792 -46.75,36.8792 -34.969,0 -53.731,-26.8714 -53.731,-59.7816 C 479.707,26.0898 496.875,0 532.168,0 c 28.625,0 46.27,17.1797 49.133,45.4805 h -15.11 c -1.425,-18.7617 -12.871,-32.75 -32.753,-32.75 -27.188,0 -38.633,21.6211 -38.633,47.539 0,23.6914 11.445,45.9415 38.476,45.9415 15.742,0 28.621,-8.1016 31.797,-24.1602 h 15.11"
             style="fill:#787f87;fill-opacity:1;fill-rule:evenodd;stroke:none"
             id="path48" />
          <path
             d="m 623.953,96.1914 h 10.18 l 20.828,22.7386 h -17.332 z m 27.981,-64.8633 c 0,-7.4687 -7.317,-18.5976 -25.118,-18.5976 -8.269,0 -15.898,3.1797 -15.898,12.0781 0,10.0234 7.629,13.2031 16.531,14.793 9.067,1.5898 19.239,1.75 24.485,5.5586 z m 21.945,-17.8086 c -1.75,-0.6406 -3.02,-0.789 -4.133,-0.789 -4.297,0 -4.297,2.8593 -4.297,9.2187 v 42.2891 c 0,19.2422 -16.054,22.582 -30.84,22.582 -18.293,0 -34.035,-7.1601 -34.824,-27.5117 h 13.516 c 0.637,12.082 9.062,15.5898 20.508,15.5898 8.586,0 18.281,-1.9101 18.281,-13.6875 0,-10.1718 -12.715,-9.2109 -27.656,-12.082 -13.996,-2.6992 -27.832,-6.668 -27.832,-25.2695 0,-16.37893 12.246,-23.058619 27.187,-23.058619 11.445,0 21.465,3.980469 28.945,12.718719 0,-8.89841 4.454,-12.718719 11.446,-12.718719 4.297,0 7.312,0.800779 9.699,2.230469 V 13.5195"
             style="fill:#787f87;fill-opacity:1;fill-rule:evenodd;stroke:none"
             id="path50" />
          <path
             d="M 763.086,116.23 H 749.57 V 73.9414 h -0.312 c -6.043,9.6992 -18.125,12.8789 -26.555,12.8789 -25.125,0 -37.527,-19.5586 -37.527,-42.7695 0,-23.2227 12.558,-43.250019 37.844,-43.250019 11.289,0 21.785,3.980469 26.238,13.039019 h 0.312 V 2.71094 h 13.516 z M 699.492,43.0898 c 0,16.0586 6.192,31.8086 24.641,31.8086 18.601,0 25.918,-14.957 25.918,-31.1679 0,-15.4219 -6.992,-31 -25.129,-31 -17.481,0 -25.43,14.9414 -25.43,30.3593"
             style="fill:#787f87;fill-opacity:1;fill-rule:evenodd;stroke:none"
             id="path52" />
          <path
             d="m 787.91,2.71094 h 13.516 V 84.9102 H 787.91 Z M 801.426,116.23 H 787.91 V 99.6914 h 13.516 V 116.23"
             style="fill:#787f87;fill-opacity:1;fill-rule:evenodd;stroke:none"
             id="path54" />
          <path
             d="M 818.906,2.71094 H 888.23 V 14.6289 h -52.468 l 50.246,61.0625 v 9.2188 H 822.09 V 72.9883 h 46.426 L 818.906,13.0508 V 2.71094"
             style="fill:#787f87;fill-opacity:1;fill-rule:evenodd;stroke:none"
             id="path56" />
          <path
             d="M 230.098,287.02 H 215 v -72.5 c 0,-20.04 -10.496,-31.02 -29.578,-31.02 -20.031,0 -31.477,10.98 -31.477,31.02 v 72.5 H 138.84 v -72.5 c 0,-30.219 17.332,-43.739 46.582,-43.739 28.301,0 44.676,15.11 44.676,43.739 v 72.5"
             style="fill:#787f87;fill-opacity:1;fill-rule:evenodd;stroke:none"
             id="path58" />
          <path
             d="m 255.266,173.488 h 13.511 v 46.434 c 0,14.777 7.953,25.75 24.328,25.75 10.333,0 16.692,-6.524 16.692,-16.543 v -55.641 h 13.516 v 54.051 c 0,17.66 -6.672,30.063 -28.301,30.063 -11.77,0 -20.989,-4.774 -26.711,-14.954 h -0.321 v 13.043 h -12.714 v -82.203"
             style="fill:#787f87;fill-opacity:1;fill-rule:evenodd;stroke:none"
             id="path60" />
          <path
             d="m 347.668,173.488 h 13.504 v 82.203 h -13.504 z m 13.504,113.532 h -13.504 v -16.551 h 13.504 v 16.551"
             style="fill:#787f87;fill-opacity:1;fill-rule:evenodd;stroke:none"
             id="path62" />
          <path
             d="m 452.441,255.691 h -14.16 L 415.867,187.16 h -0.32 L 392.5,255.691 h -15.105 l 30.527,-82.203 h 14.461 l 30.058,82.203"
             style="fill:#787f87;fill-opacity:1;fill-rule:evenodd;stroke:none"
             id="path64" />
          <path
             d="M 524.824,199.559 C 522.441,188.91 514.648,183.5 503.516,183.5 c -17.957,0 -26.075,12.719 -25.594,27.031 h 61.531 c 0.801,19.879 -8.105,47.071 -37.207,47.071 -22.41,0 -38.633,-18.122 -38.633,-42.77 0.801,-25.121 13.196,-43.242 39.434,-43.242 18.437,0 31.484,9.851 35.137,27.969 z m -46.902,22.902 c 0.957,12.559 9.383,23.211 23.531,23.211 13.352,0 23.059,-10.332 23.692,-23.211 h -47.223"
             style="fill:#787f87;fill-opacity:1;fill-rule:evenodd;stroke:none"
             id="path66" />
          <path
             d="m 556.16,173.488 h 13.52 v 36.571 c 0,20.82 7.949,33.222 29.734,33.222 v 14.321 c -14.629,0.468 -23.691,-6.043 -30.215,-19.243 h -0.312 v 17.332 H 556.16 v -82.203"
             style="fill:#787f87;fill-opacity:1;fill-rule:evenodd;stroke:none"
             id="path68" />
          <path
             d="m 607.5,199.398 c 0.793,-20.347 16.379,-27.808 34.824,-27.808 16.692,0 34.973,6.34 34.973,25.898 0,15.91 -13.352,20.364 -26.867,23.371 -12.559,3.032 -26.875,4.621 -26.875,14.321 0,8.261 9.383,10.492 17.492,10.492 8.902,0 18.125,-3.34 19.082,-13.832 h 13.516 c -1.118,20.039 -15.586,25.762 -33.711,25.762 -14.309,0 -30.688,-6.832 -30.688,-23.383 0,-15.739 13.52,-20.188 26.867,-23.207 13.516,-3.024 26.875,-4.774 26.875,-15.262 0,-10.34 -11.445,-12.25 -19.875,-12.25 -11.133,0 -21.629,3.82 -22.097,15.898 H 607.5"
             style="fill:#787f87;fill-opacity:1;fill-rule:evenodd;stroke:none"
             id="path70" />
          <path
             d="m 696.27,173.488 h 13.515 v 82.203 H 696.27 Z M 709.785,287.02 H 696.27 v -16.551 h 13.515 v 16.551"
             style="fill:#787f87;fill-opacity:1;fill-rule:evenodd;stroke:none"
             id="path72" />
          <path
             d="m 807.402,287.02 h -13.515 v -42.301 h -0.324 c -6.043,9.703 -18.125,12.883 -26.551,12.883 -25.117,0 -37.52,-19.563 -37.52,-42.77 0,-23.223 12.559,-43.242 37.844,-43.242 11.285,0 21.773,3.961 26.227,13.019 h 0.324 v -11.121 h 13.515 z m -63.601,-73.149 c 0,16.059 6.199,31.801 24.644,31.801 18.606,0 25.91,-14.942 25.91,-31.152 0,-15.43 -6.992,-31.02 -25.117,-31.02 -17.492,0 -25.437,14.949 -25.437,30.371"
             style="fill:#787f87;fill-opacity:1;fill-rule:evenodd;stroke:none"
             id="path74" />
          <path
             d="m 882.305,202.109 c 0,-7.48 -7.317,-18.609 -25.117,-18.609 -8.27,0 -15.911,3.18 -15.911,12.09 0,10.019 7.641,13.191 16.536,14.781 9.062,1.598 19.238,1.75 24.492,5.57 z m 21.941,-17.808 c -1.746,-0.629 -3.023,-0.801 -4.141,-0.801 -4.285,0 -4.285,2.871 -4.285,9.23 v 42.29 c 0,19.242 -16.062,22.582 -30.847,22.582 -18.285,0 -34.028,-7.161 -34.817,-27.512 h 13.516 c 0.625,12.082 9.062,15.582 20.508,15.582 8.586,0 18.281,-1.91 18.281,-13.672 0,-10.18 -12.715,-9.219 -27.664,-12.078 -13.996,-2.711 -27.824,-6.684 -27.824,-25.293 0,-16.367 12.246,-23.039 27.187,-23.039 11.445,0 21.465,3.961 28.938,12.711 0,-8.91 4.453,-12.711 11.453,-12.711 4.289,0 7.304,0.789 9.695,2.219 v 10.492"
             style="fill:#787f87;fill-opacity:1;fill-rule:evenodd;stroke:none"
             id="path76" />
          <path
             d="m 993.457,287.02 h -13.516 v -42.301 h -0.324 c -6.043,9.703 -18.125,12.883 -26.551,12.883 -25.117,0 -37.519,-19.563 -37.519,-42.77 0,-23.223 12.558,-43.242 37.844,-43.242 11.289,0 21.785,3.961 26.226,13.019 h 0.324 v -11.121 h 13.516 z m -63.602,-73.149 c 0,16.059 6.2,31.801 24.649,31.801 18.601,0 25.918,-14.942 25.918,-31.152 0,-15.43 -7.004,-31.02 -25.129,-31.02 -17.488,0 -25.438,14.949 -25.438,30.371"
             style="fill:#787f87;fill-opacity:1;fill-rule:evenodd;stroke:none"
             id="path78" />
        </g>
      </g>
    </g>
  </g>
</svg>
